<svg id="undraw_file_analysis_8k9b" xmlns="http://www.w3.org/2000/svg" width="205.731" height="176.959" viewBox="0 0 205.731 176.959">
  <circle id="Ellipse_75" data-name="Ellipse 75" cx="1.903" cy="1.903" r="1.903" fill="#e6e6e6"/>
  <circle id="Ellipse_76" data-name="Ellipse 76" cx="1.903" cy="1.903" r="1.903" transform="translate(9.635)" fill="#e6e6e6"/>
  <circle id="Ellipse_77" data-name="Ellipse 77" cx="1.903" cy="1.903" r="1.903" transform="translate(19.271)" fill="#e6e6e6"/>
  <circle id="Ellipse_78" data-name="Ellipse 78" cx="1.903" cy="1.903" r="1.903" transform="translate(28.906)" fill="#e6e6e6"/>
  <circle id="Ellipse_79" data-name="Ellipse 79" cx="1.903" cy="1.903" r="1.903" transform="translate(38.542)" fill="#e6e6e6"/>
  <circle id="Ellipse_80" data-name="Ellipse 80" cx="1.903" cy="1.903" r="1.903" transform="translate(48.177)" fill="#e6e6e6"/>
  <circle id="Ellipse_81" data-name="Ellipse 81" cx="1.903" cy="1.903" r="1.903" transform="translate(57.812)" fill="#e6e6e6"/>
  <circle id="Ellipse_82" data-name="Ellipse 82" cx="1.903" cy="1.903" r="1.903" transform="translate(67.448)" fill="#e6e6e6"/>
  <circle id="Ellipse_83" data-name="Ellipse 83" cx="1.903" cy="1.903" r="1.903" transform="translate(77.083)" fill="#e6e6e6"/>
  <circle id="Ellipse_84" data-name="Ellipse 84" cx="1.903" cy="1.903" r="1.903" transform="translate(86.718)" fill="#e6e6e6"/>
  <circle id="Ellipse_85" data-name="Ellipse 85" cx="1.903" cy="1.903" r="1.903" transform="translate(0 9.756)" fill="#e6e6e6"/>
  <circle id="Ellipse_86" data-name="Ellipse 86" cx="1.903" cy="1.903" r="1.903" transform="translate(9.635 9.756)" fill="#e6e6e6"/>
  <circle id="Ellipse_87" data-name="Ellipse 87" cx="1.903" cy="1.903" r="1.903" transform="translate(19.271 9.756)" fill="#e6e6e6"/>
  <circle id="Ellipse_88" data-name="Ellipse 88" cx="1.903" cy="1.903" r="1.903" transform="translate(28.906 9.756)" fill="#3072ed"/>
  <circle id="Ellipse_89" data-name="Ellipse 89" cx="1.903" cy="1.903" r="1.903" transform="translate(38.542 9.756)" fill="#e6e6e6"/>
  <circle id="Ellipse_90" data-name="Ellipse 90" cx="1.903" cy="1.903" r="1.903" transform="translate(48.177 9.756)" fill="#e6e6e6"/>
  <circle id="Ellipse_91" data-name="Ellipse 91" cx="1.903" cy="1.903" r="1.903" transform="translate(57.812 9.756)" fill="#e6e6e6"/>
  <circle id="Ellipse_92" data-name="Ellipse 92" cx="1.903" cy="1.903" r="1.903" transform="translate(67.448 9.756)" fill="#e6e6e6"/>
  <circle id="Ellipse_93" data-name="Ellipse 93" cx="1.903" cy="1.903" r="1.903" transform="translate(77.083 9.756)" fill="#e6e6e6"/>
  <circle id="Ellipse_94" data-name="Ellipse 94" cx="1.903" cy="1.903" r="1.903" transform="translate(86.718 9.756)" fill="#e6e6e6"/>
  <circle id="Ellipse_95" data-name="Ellipse 95" cx="1.903" cy="1.903" r="1.903" transform="translate(0 19.513)" fill="#e6e6e6"/>
  <circle id="Ellipse_96" data-name="Ellipse 96" cx="1.903" cy="1.903" r="1.903" transform="translate(9.635 19.513)" fill="#e6e6e6"/>
  <circle id="Ellipse_97" data-name="Ellipse 97" cx="1.903" cy="1.903" r="1.903" transform="translate(19.271 19.513)" fill="#e6e6e6"/>
  <circle id="Ellipse_98" data-name="Ellipse 98" cx="1.903" cy="1.903" r="1.903" transform="translate(28.906 19.513)" fill="#e6e6e6"/>
  <circle id="Ellipse_99" data-name="Ellipse 99" cx="1.903" cy="1.903" r="1.903" transform="translate(38.542 19.513)" fill="#e6e6e6"/>
  <circle id="Ellipse_100" data-name="Ellipse 100" cx="1.903" cy="1.903" r="1.903" transform="translate(48.177 19.513)" fill="#e6e6e6"/>
  <circle id="Ellipse_101" data-name="Ellipse 101" cx="1.903" cy="1.903" r="1.903" transform="translate(57.812 19.513)" fill="#e6e6e6"/>
  <circle id="Ellipse_102" data-name="Ellipse 102" cx="1.903" cy="1.903" r="1.903" transform="translate(67.448 19.513)" fill="#e6e6e6"/>
  <circle id="Ellipse_103" data-name="Ellipse 103" cx="1.903" cy="1.903" r="1.903" transform="translate(77.083 19.513)" fill="#e6e6e6"/>
  <circle id="Ellipse_104" data-name="Ellipse 104" cx="1.903" cy="1.903" r="1.903" transform="translate(86.718 19.513)" fill="#e6e6e6"/>
  <circle id="Ellipse_105" data-name="Ellipse 105" cx="1.903" cy="1.903" r="1.903" transform="translate(0 29.269)" fill="#e6e6e6"/>
  <circle id="Ellipse_106" data-name="Ellipse 106" cx="1.903" cy="1.903" r="1.903" transform="translate(9.635 29.269)" fill="#e6e6e6"/>
  <circle id="Ellipse_107" data-name="Ellipse 107" cx="1.903" cy="1.903" r="1.903" transform="translate(19.271 29.269)" fill="#e6e6e6"/>
  <circle id="Ellipse_108" data-name="Ellipse 108" cx="1.903" cy="1.903" r="1.903" transform="translate(28.906 29.269)" fill="#e6e6e6"/>
  <circle id="Ellipse_109" data-name="Ellipse 109" cx="1.903" cy="1.903" r="1.903" transform="translate(38.542 29.269)" fill="#e6e6e6"/>
  <circle id="Ellipse_110" data-name="Ellipse 110" cx="1.903" cy="1.903" r="1.903" transform="translate(48.177 29.269)" fill="#e6e6e6"/>
  <circle id="Ellipse_111" data-name="Ellipse 111" cx="1.903" cy="1.903" r="1.903" transform="translate(57.812 29.269)" fill="#e6e6e6"/>
  <circle id="Ellipse_112" data-name="Ellipse 112" cx="1.903" cy="1.903" r="1.903" transform="translate(67.448 29.269)" fill="#e6e6e6"/>
  <circle id="Ellipse_113" data-name="Ellipse 113" cx="1.903" cy="1.903" r="1.903" transform="translate(77.083 29.269)" fill="#e6e6e6"/>
  <circle id="Ellipse_114" data-name="Ellipse 114" cx="1.903" cy="1.903" r="1.903" transform="translate(86.718 29.269)" fill="#e6e6e6"/>
  <circle id="Ellipse_115" data-name="Ellipse 115" cx="1.903" cy="1.903" r="1.903" transform="translate(0 39.025)" fill="#e6e6e6"/>
  <circle id="Ellipse_116" data-name="Ellipse 116" cx="1.903" cy="1.903" r="1.903" transform="translate(9.635 39.025)" fill="#3072ed"/>
  <circle id="Ellipse_117" data-name="Ellipse 117" cx="1.903" cy="1.903" r="1.903" transform="translate(19.271 39.025)" fill="#e6e6e6"/>
  <circle id="Ellipse_118" data-name="Ellipse 118" cx="1.903" cy="1.903" r="1.903" transform="translate(28.906 39.025)" fill="#e6e6e6"/>
  <circle id="Ellipse_119" data-name="Ellipse 119" cx="1.903" cy="1.903" r="1.903" transform="translate(38.542 39.025)" fill="#e6e6e6"/>
  <circle id="Ellipse_120" data-name="Ellipse 120" cx="1.903" cy="1.903" r="1.903" transform="translate(48.177 39.025)" fill="#e6e6e6"/>
  <circle id="Ellipse_121" data-name="Ellipse 121" cx="1.903" cy="1.903" r="1.903" transform="translate(57.812 39.025)" fill="#e6e6e6"/>
  <circle id="Ellipse_122" data-name="Ellipse 122" cx="1.903" cy="1.903" r="1.903" transform="translate(67.448 39.025)" fill="#e6e6e6"/>
  <circle id="Ellipse_123" data-name="Ellipse 123" cx="1.903" cy="1.903" r="1.903" transform="translate(77.083 39.025)" fill="#e6e6e6"/>
  <circle id="Ellipse_124" data-name="Ellipse 124" cx="1.903" cy="1.903" r="1.903" transform="translate(86.718 39.025)" fill="#e6e6e6"/>
  <circle id="Ellipse_125" data-name="Ellipse 125" cx="1.903" cy="1.903" r="1.903" transform="translate(0 48.782)" fill="#e6e6e6"/>
  <circle id="Ellipse_126" data-name="Ellipse 126" cx="1.903" cy="1.903" r="1.903" transform="translate(9.635 48.782)" fill="#e6e6e6"/>
  <circle id="Ellipse_127" data-name="Ellipse 127" cx="1.903" cy="1.903" r="1.903" transform="translate(19.271 48.782)" fill="#e6e6e6"/>
  <circle id="Ellipse_128" data-name="Ellipse 128" cx="1.903" cy="1.903" r="1.903" transform="translate(28.906 48.782)" fill="#e6e6e6"/>
  <circle id="Ellipse_129" data-name="Ellipse 129" cx="1.903" cy="1.903" r="1.903" transform="translate(38.542 48.782)" fill="#e6e6e6"/>
  <circle id="Ellipse_130" data-name="Ellipse 130" cx="1.903" cy="1.903" r="1.903" transform="translate(48.177 48.782)" fill="#e6e6e6"/>
  <circle id="Ellipse_131" data-name="Ellipse 131" cx="1.903" cy="1.903" r="1.903" transform="translate(57.812 48.782)" fill="#e6e6e6"/>
  <circle id="Ellipse_132" data-name="Ellipse 132" cx="1.903" cy="1.903" r="1.903" transform="translate(67.448 48.782)" fill="#e6e6e6"/>
  <circle id="Ellipse_133" data-name="Ellipse 133" cx="1.903" cy="1.903" r="1.903" transform="translate(77.083 48.782)" fill="#e6e6e6"/>
  <circle id="Ellipse_134" data-name="Ellipse 134" cx="1.903" cy="1.903" r="1.903" transform="translate(86.718 48.782)" fill="#e6e6e6"/>
  <circle id="Ellipse_135" data-name="Ellipse 135" cx="1.903" cy="1.903" r="1.903" transform="translate(0 58.538)" fill="#e6e6e6"/>
  <circle id="Ellipse_136" data-name="Ellipse 136" cx="1.903" cy="1.903" r="1.903" transform="translate(9.635 58.538)" fill="#e6e6e6"/>
  <circle id="Ellipse_137" data-name="Ellipse 137" cx="1.903" cy="1.903" r="1.903" transform="translate(19.271 58.538)" fill="#3072ed"/>
  <circle id="Ellipse_138" data-name="Ellipse 138" cx="1.903" cy="1.903" r="1.903" transform="translate(28.906 58.538)" fill="#e6e6e6"/>
  <circle id="Ellipse_139" data-name="Ellipse 139" cx="1.903" cy="1.903" r="1.903" transform="translate(38.542 58.538)" fill="#e6e6e6"/>
  <circle id="Ellipse_140" data-name="Ellipse 140" cx="1.903" cy="1.903" r="1.903" transform="translate(48.177 58.538)" fill="#e6e6e6"/>
  <circle id="Ellipse_141" data-name="Ellipse 141" cx="1.903" cy="1.903" r="1.903" transform="translate(57.812 58.538)" fill="#e6e6e6"/>
  <circle id="Ellipse_142" data-name="Ellipse 142" cx="1.903" cy="1.903" r="1.903" transform="translate(67.448 58.538)" fill="#e6e6e6"/>
  <circle id="Ellipse_143" data-name="Ellipse 143" cx="1.903" cy="1.903" r="1.903" transform="translate(77.083 58.538)" fill="#e6e6e6"/>
  <circle id="Ellipse_144" data-name="Ellipse 144" cx="1.903" cy="1.903" r="1.903" transform="translate(86.718 58.538)" fill="#e6e6e6"/>
  <circle id="Ellipse_145" data-name="Ellipse 145" cx="1.903" cy="1.903" r="1.903" transform="translate(0 68.294)" fill="#e6e6e6"/>
  <circle id="Ellipse_146" data-name="Ellipse 146" cx="1.903" cy="1.903" r="1.903" transform="translate(9.635 68.294)" fill="#e6e6e6"/>
  <circle id="Ellipse_147" data-name="Ellipse 147" cx="1.903" cy="1.903" r="1.903" transform="translate(19.271 68.294)" fill="#e6e6e6"/>
  <circle id="Ellipse_148" data-name="Ellipse 148" cx="1.903" cy="1.903" r="1.903" transform="translate(28.906 68.294)" fill="#e6e6e6"/>
  <circle id="Ellipse_149" data-name="Ellipse 149" cx="1.903" cy="1.903" r="1.903" transform="translate(38.542 68.294)" fill="#e6e6e6"/>
  <circle id="Ellipse_150" data-name="Ellipse 150" cx="1.903" cy="1.903" r="1.903" transform="translate(48.177 68.294)" fill="#e6e6e6"/>
  <circle id="Ellipse_151" data-name="Ellipse 151" cx="1.903" cy="1.903" r="1.903" transform="translate(57.812 68.294)" fill="#e6e6e6"/>
  <circle id="Ellipse_152" data-name="Ellipse 152" cx="1.903" cy="1.903" r="1.903" transform="translate(67.448 68.294)" fill="#e6e6e6"/>
  <circle id="Ellipse_153" data-name="Ellipse 153" cx="1.903" cy="1.903" r="1.903" transform="translate(77.083 68.294)" fill="#e6e6e6"/>
  <circle id="Ellipse_154" data-name="Ellipse 154" cx="1.903" cy="1.903" r="1.903" transform="translate(86.718 68.294)" fill="#e6e6e6"/>
  <circle id="Ellipse_155" data-name="Ellipse 155" cx="1.903" cy="1.903" r="1.903" transform="translate(0 78.051)" fill="#e6e6e6"/>
  <circle id="Ellipse_156" data-name="Ellipse 156" cx="1.903" cy="1.903" r="1.903" transform="translate(9.635 78.051)" fill="#e6e6e6"/>
  <circle id="Ellipse_157" data-name="Ellipse 157" cx="1.903" cy="1.903" r="1.903" transform="translate(19.271 78.051)" fill="#e6e6e6"/>
  <circle id="Ellipse_158" data-name="Ellipse 158" cx="1.903" cy="1.903" r="1.903" transform="translate(28.906 78.051)" fill="#e6e6e6"/>
  <circle id="Ellipse_159" data-name="Ellipse 159" cx="1.903" cy="1.903" r="1.903" transform="translate(38.542 78.051)" fill="#e6e6e6"/>
  <circle id="Ellipse_160" data-name="Ellipse 160" cx="1.903" cy="1.903" r="1.903" transform="translate(48.177 78.051)" fill="#e6e6e6"/>
  <circle id="Ellipse_161" data-name="Ellipse 161" cx="1.903" cy="1.903" r="1.903" transform="translate(57.812 78.051)" fill="#e6e6e6"/>
  <circle id="Ellipse_162" data-name="Ellipse 162" cx="1.903" cy="1.903" r="1.903" transform="translate(67.448 78.051)" fill="#e6e6e6"/>
  <circle id="Ellipse_163" data-name="Ellipse 163" cx="1.903" cy="1.903" r="1.903" transform="translate(77.083 78.051)" fill="#e6e6e6"/>
  <circle id="Ellipse_164" data-name="Ellipse 164" cx="1.903" cy="1.903" r="1.903" transform="translate(86.718 78.051)" fill="#e6e6e6"/>
  <circle id="Ellipse_165" data-name="Ellipse 165" cx="1.903" cy="1.903" r="1.903" transform="translate(0 87.807)" fill="#e6e6e6"/>
  <circle id="Ellipse_166" data-name="Ellipse 166" cx="1.903" cy="1.903" r="1.903" transform="translate(9.635 87.807)" fill="#e6e6e6"/>
  <circle id="Ellipse_167" data-name="Ellipse 167" cx="1.903" cy="1.903" r="1.903" transform="translate(19.271 87.807)" fill="#e6e6e6"/>
  <circle id="Ellipse_168" data-name="Ellipse 168" cx="1.903" cy="1.903" r="1.903" transform="translate(28.906 87.807)" fill="#e6e6e6"/>
  <circle id="Ellipse_169" data-name="Ellipse 169" cx="1.903" cy="1.903" r="1.903" transform="translate(38.542 87.807)" fill="#e6e6e6"/>
  <circle id="Ellipse_170" data-name="Ellipse 170" cx="1.903" cy="1.903" r="1.903" transform="translate(48.177 87.807)" fill="#e6e6e6"/>
  <circle id="Ellipse_171" data-name="Ellipse 171" cx="1.903" cy="1.903" r="1.903" transform="translate(57.812 87.807)" fill="#e6e6e6"/>
  <circle id="Ellipse_172" data-name="Ellipse 172" cx="1.903" cy="1.903" r="1.903" transform="translate(67.448 87.807)" fill="#e6e6e6"/>
  <circle id="Ellipse_173" data-name="Ellipse 173" cx="1.903" cy="1.903" r="1.903" transform="translate(77.083 87.807)" fill="#e6e6e6"/>
  <circle id="Ellipse_174" data-name="Ellipse 174" cx="1.903" cy="1.903" r="1.903" transform="translate(86.718 87.807)" fill="#e6e6e6"/>
  <path id="Path_179" data-name="Path 179" d="M424.848,193.83a2.407,2.407,0,0,1,2.407,2.407V292.5a2.407,2.407,0,0,1-2.407,2.407H355.781a2.407,2.407,0,0,1-2.407-2.407V196.237a2.407,2.407,0,0,1,2.407-2.407h69.067" transform="translate(-312.985 -176.819)" fill="#e6e6e6"/>
  <path id="Path_180" data-name="Path 180" d="M362.991,299.148H431.5v-95.7H362.991Z" transform="translate(-319.915 -183.749)" fill="#fff"/>
  <path id="Path_181" data-name="Path 181" d="M454.33,257.643a.481.481,0,0,1,.481.481v.963a.481.481,0,0,1-.481.481H416.307a.481.481,0,0,1-.481-.481v-.963a.481.481,0,0,1,.481-.481H454.33" transform="translate(-357.989 -222.804)" fill="#e6e6e6"/>
  <path id="Path_182" data-name="Path 182" d="M454.33,274.009a.481.481,0,0,1,.481.481v.963a.481.481,0,0,1-.481.481H416.307a.481.481,0,0,1-.481-.481v-.963a.481.481,0,0,1,.481-.481H454.33" transform="translate(-357.989 -234.598)" fill="#e6e6e6"/>
  <path id="Path_183" data-name="Path 183" d="M454.33,290.376a.481.481,0,0,1,.481.481v.963a.481.481,0,0,1-.481.481H416.307a.481.481,0,0,1-.481-.481v-.963a.481.481,0,0,1,.481-.481H454.33" transform="translate(-357.989 -246.392)" fill="#3072ed"/>
  <path id="Path_184" data-name="Path 184" d="M454.33,307.1a.481.481,0,0,1,.481.481v.963a.481.481,0,0,1-.481.481H416.307a.481.481,0,0,1-.481-.481v-.963a.481.481,0,0,1,.481-.481H454.33" transform="translate(-357.989 -258.445)" fill="#e6e6e6"/>
  <path id="Path_185" data-name="Path 185" d="M454.33,323.467a.481.481,0,0,1,.481.481v.963a.481.481,0,0,1-.481.481H416.307a.481.481,0,0,1-.481-.481v-.963a.481.481,0,0,1,.481-.481H454.33" transform="translate(-357.989 -270.238)" fill="#e6e6e6"/>
  <path id="Path_186" data-name="Path 186" d="M454.33,339.834a.481.481,0,0,1,.481.481v.963a.481.481,0,0,1-.481.481H416.306a.481.481,0,0,1-.481-.481v-.963a.481.481,0,0,1,.481-.481H454.33" transform="translate(-357.989 -282.033)" fill="#e6e6e6"/>
  <path id="Path_187" data-name="Path 187" d="M416.976,394.89a.559.559,0,0,0-.559.559v25.958a.559.559,0,0,0,.559.559h37.473a.559.559,0,0,0,.559-.559V395.449a.559.559,0,0,0-.559-.559Z" transform="translate(-358.415 -321.708)" fill="#3072ed"/>
  <path id="Path_188" data-name="Path 188" d="M276.226,77.618l-.393-.1,8.584-32.292h49.792v.407H284.73Z" transform="translate(-198.772 -32.588)" fill="#3f3d56"/>
  <path id="Path_189" data-name="Path 189" d="M697.134,172.141a4.272,4.272,0,1,1,4.272-4.272A4.272,4.272,0,0,1,697.134,172.141Zm0-8.137A3.865,3.865,0,1,0,701,167.869,3.865,3.865,0,0,0,697.134,164Z" transform="translate(-557.628 -155.032)" fill="#3f3d56"/>
  <circle id="Ellipse_175" data-name="Ellipse 175" cx="1.627" cy="1.627" r="1.627" transform="translate(137.878 11.21)" fill="#3072ed"/>
  <path id="Path_190" data-name="Path 190" d="M122.756,356.941l.393.105L114.5,389.322l-49.792-.1v-.407l49.479.095Z" transform="translate(-46.633 -257.221)" fill="#3f3d56"/>
  <path id="Path_191" data-name="Path 191" d="M247.944,589.4a4.272,4.272,0,1,1-4.28,4.264A4.272,4.272,0,0,1,247.944,589.4Zm-.016,8.137a3.865,3.865,0,1,0-3.858-3.872,3.865,3.865,0,0,0,3.858,3.872Z" transform="translate(-233.925 -461.873)" fill="#3f3d56"/>
  <circle id="Ellipse_176" data-name="Ellipse 176" cx="1.627" cy="1.627" r="1.627" transform="translate(12.384 130.167)" fill="#3072ed"/>
  <path id="Path_192" data-name="Path 192" d="M609.422,559.6h-2.871l.513-15.894,7.588.41Z" transform="translate(-437.096 -391.805)" fill="#ffb8b8"/>
  <path id="Path_193" data-name="Path 193" d="M800.827,741.022c-.867.4-1.593-2.809-2.324-2.091a6.162,6.162,0,0,1-6.887,1.57l-.063-.011a1.278,1.278,0,0,1-.806-1.666h0a1.278,1.278,0,0,1,.887-.791l2.175-.544,3.415-6,3.486-.236h0a8.328,8.328,0,0,1,1.54,7.1C801.933,739.645,801.445,740.74,800.827,741.022Z" transform="translate(-628.109 -564.096)" fill="#2f2e41"/>
  <path id="Path_194" data-name="Path 194" d="M693.73,550.972l-2.67,1.056-5.369-14.969,7.207-2.41Z" transform="translate(-494.126 -385.282)" fill="#ffb8b8"/>
  <path id="Path_195" data-name="Path 195" d="M910.339,732.572c-.66.687-2.514-2.026-2.93-1.089a6.162,6.162,0,0,1-5.827,3.993l-.063.013a1.278,1.278,0,0,1-1.362-1.253h0a1.278,1.278,0,0,1,.534-1.062l1.822-1.305.967-6.84,3.155-1.5h0a8.328,8.328,0,0,1,4.045,6.04C910.862,730.885,910.81,732.083,910.339,732.572Z" transform="translate(-707.011 -558.532)" fill="#2f2e41"/>
  <path id="Path_196" data-name="Path 196" d="M873.268,403.161l-4.408,1.133a2.307,2.307,0,0,1-2.88-2.146h0a2.307,2.307,0,0,1,2.38-2.395l3.883.125,7.482-2.724-7.072-5.274.82-7.383,13.782,11.064a2.29,2.29,0,0,1,.85,1.622h0a2.289,2.289,0,0,1-1.679,2.371C883.2,402.191,878.493,403,873.268,403.161Z" transform="translate(-682.38 -314.219)" fill="#ffb8b8"/>
  <circle id="Ellipse_177" data-name="Ellipse 177" cx="7.178" cy="7.178" r="7.178" transform="translate(173.661 46.899)" fill="#ffb8b8"/>
  <path id="Path_197" data-name="Path 197" d="M856.985,344.813l-9.639,3.9a13.027,13.027,0,0,0-2.256-8.614l8-1.846C852.984,340.693,854.305,342.877,856.985,344.813Z" transform="translate(-667.328 -280.891)" fill="#ffb8b8"/>
  <path id="Path_198" data-name="Path 198" d="M846.031,373.694c-7.77.622-12.02-.41-18.56-4.2l2.461-5.742h0a4.75,4.75,0,0,1,1.957-4.548l2.555-1.81,7.793-2.256.35.017a4.266,4.266,0,0,1,4.04,3.933C848.32,364.144,848.331,369.036,846.031,373.694Z" transform="translate(-654.631 -293.058)" fill="#3072ed"/>
  <path id="Path_199" data-name="Path 199" d="M838.462,416.374l-16.612-1.846-1.231-5.332c-2.727-4.117-1.537-7.889,1.641-11.485,5.792,3.717,11.169,5.324,18.868,4.1C839.08,406.792,837.189,411.686,838.462,416.374Z" transform="translate(-648.599 -323.74)" fill="#2f2e41"/>
  <path id="Path_200" data-name="Path 200" d="M839.957,519.777l-13.228-.718-4.307-34.249-3.487,34.044-15.689-.718c4.786-22.381,8.111-43.628,7.178-63.167l16.407,1.436c5.56,5.863,8.322,15.222,9.947,26.354A299.78,299.78,0,0,1,839.957,519.777Z" transform="translate(-637.174 -365.003)" fill="#2f2e41"/>
  <circle id="Ellipse_178" data-name="Ellipse 178" cx="2.467" cy="2.467" r="2.467" transform="translate(186.273 42.608)" fill="#2f2e41"/>
  <path id="Path_201" data-name="Path 201" d="M874.478,286.115a2.465,2.465,0,0,1,2.466-2.306c-.051-.006-.1-.014-.153-.018a2.467,2.467,0,0,0-.317,4.924c.052,0,.1,0,.154,0A2.465,2.465,0,0,1,874.478,286.115Z" transform="translate(-688.28 -241.643)" fill="#2f2e41"/>
  <path id="Path_202" data-name="Path 202" d="M838.743,294.151c-2.2-1.825-8.512.495-8.919,1.722-2.976.406-5.228,2.142-5.228,5.228h0a8.927,8.927,0,0,0,5.956,0c3.467,2.825,3.7,6.377,1.6,10.457l2.594.052,3.215-4.7.154,4.767,5.946-.119v-6.831a14.281,14.281,0,0,0-1.525-6.543A13.124,13.124,0,0,0,838.743,294.151Z" transform="translate(-652.559 -248.626)" fill="#2f2e41"/>
  <ellipse id="Ellipse_179" data-name="Ellipse 179" cx="1.18" cy="1.652" rx="1.18" ry="1.652" transform="translate(179.467 54.29)" fill="#ffb8b8"/>
  <path id="Path_203" data-name="Path 203" d="M791.373,559.928a.414.414,0,0,1,.414.414v16.572a.414.414,0,0,1-.414.414H779.483a.414.414,0,0,1-.414-.414V560.342a.414.414,0,0,1,.414-.414h11.891" transform="translate(-619.751 -440.638)" fill="#3072ed"/>
  <path id="Path_204" data-name="Path 204" d="M816.919,418.108l.4,6.96a3.023,3.023,0,0,1-3.457,3.164h0c-1.768-.26-1.809-1.989-1.375-3.723l1.652-6.606c4.052-14.527,5.145-28.786,4.94-42.692a3.491,3.491,0,0,1,3.585-3.552h0a3.49,3.49,0,0,1,3.386,3.611C825.479,391.6,823.1,406.429,816.919,418.108Z" transform="translate(-643.669 -304.966)" fill="#ffb8b8"/>
</svg>
