<svg xmlns="http://www.w3.org/2000/svg" width="32.248" height="32.25" viewBox="0 0 32.248 32.25">
  <defs>
    <style>
      .cls-1 {
        fill: #39fd61;
      }
    </style>
  </defs>
  <g id="Icon_feather-check-circle" data-name="Icon feather-check-circle" transform="translate(-1.5 -1.49)">
    <path id="Path_9272" data-name="Path 9272" class="cls-1" d="M17.626,33.741q-.3,0-.6-.011A16.125,16.125,0,1,1,24.186,2.887a1.5,1.5,0,1,1-1.221,2.74A13.124,13.124,0,0,0,6.614,24.759a13.124,13.124,0,0,0,24.134-7.136V16.278a1.5,1.5,0,1,1,3,0v1.345A16.129,16.129,0,0,1,17.626,33.741Z"/>
    <path id="Path_9273" data-name="Path 9273" class="cls-1" d="M17.887,22.139a1.5,1.5,0,0,1-1.061-.439l-4.387-4.387a1.5,1.5,0,0,1,2.121-2.121l3.326,3.326L31.45,4.94a1.5,1.5,0,0,1,2.122,2.12L18.948,21.7a1.5,1.5,0,0,1-1.061.44Z" transform="translate(-0.263 -0.075)"/>
  </g>
</svg>
