<svg id="Group_9789" data-name="Group 9789" xmlns="http://www.w3.org/2000/svg" xmlns:xlink="http://www.w3.org/1999/xlink" width="751.064" height="444.76" viewBox="0 0 751.064 444.76">
  <defs>
    <style>
      .cls-1 {
        fill: none;
      }

      .cls-2 {
        clip-path: url(#clip-path);
      }

      .cls-3 {
        fill: #d7f0ff;
      }

      .cls-4 {
        fill: #fff;
      }

      .cls-5 {
        fill: #263238;
      }

      .cls-6 {
        fill: #697176;
      }

      .cls-7 {
        fill: #9cf0ff;
      }

      .cls-8 {
        fill: #737373;
      }

      .cls-9 {
        fill: #7d7d7d;
      }

      .cls-10 {
        fill: #636363;
      }
    </style>
    <clipPath id="clip-path">
      <rect id="Rectangle_16859" data-name="Rectangle 16859" class="cls-1" width="751.064" height="444.76"/>
    </clipPath>
  </defs>
  <g id="Group_9782" data-name="Group 9782">
    <g id="Group_9781" data-name="Group 9781" class="cls-2">
      <path id="Path_9274" data-name="Path 9274" class="cls-3" d="M741.78,169.546C724.328,90.285,663.6,27.724,580.9,6.773,559.153,1.265,536.029-1.52,513.017.85,418.969,10.532,306.778,73.82,248.569,87.088S122.1,47.286,44.69,128.785-14.837,398.87,139.949,435.829s240.94-54.017,309.693-34.116,191.844,11.372,264.527-47.384c43.1-34.84,42.758-115.994,27.612-184.784" transform="translate(0 0)"/>
    </g>
  </g>
  <g id="Group_9784" data-name="Group 9784">
    <g id="Group_9783" data-name="Group 9783" class="cls-2">
      <path id="Path_9275" data-name="Path 9275" class="cls-4" d="M264.013,135.17v-17.7H253.232a50.653,50.653,0,0,0-2.289-8.609l9.316-5.378-8.851-15.331L242.07,93.54a51.349,51.349,0,0,0-6.3-6.293l5.389-9.334-15.331-8.851-5.381,9.32A50.62,50.62,0,0,0,211.84,76.1V65.32h-17.7V76.1a50.63,50.63,0,0,0-8.609,2.289l-5.378-9.315-15.331,8.851,5.391,9.337a51.278,51.278,0,0,0-6.294,6.3l-9.333-5.389L145.732,103.5l9.32,5.381a50.657,50.657,0,0,0-2.286,8.61H141.989v17.7h10.782a50.652,50.652,0,0,0,2.289,8.609l-9.316,5.378,8.851,15.331,9.337-5.391a51.351,51.351,0,0,0,6.3,6.293l-5.389,9.334,15.331,8.851,5.381-9.32a50.717,50.717,0,0,0,8.609,2.285v10.777h17.7V176.563a50.627,50.627,0,0,0,8.609-2.289l5.378,9.315,15.331-8.851-5.391-9.337a51.28,51.28,0,0,0,6.294-6.3l9.333,5.387,8.851-15.33-9.32-5.381a50.66,50.66,0,0,0,2.286-8.61ZM203,159.317a32.985,32.985,0,1,1,32.985-32.986A32.986,32.986,0,0,1,203,159.317" transform="translate(4.612 2.122)"/>
      <path id="Path_9276" data-name="Path 9276" class="cls-5" d="M211.865,187.844h-17.7a.5.5,0,0,1-.5-.5V176.985a51.394,51.394,0,0,1-7.885-2.092l-5.172,8.959a.5.5,0,0,1-.683.183l-15.331-8.851a.5.5,0,0,1-.183-.683l5.18-8.972a52.024,52.024,0,0,1-5.767-5.763l-8.975,5.182a.5.5,0,0,1-.683-.183l-8.851-15.331a.5.5,0,0,1,.183-.683l8.954-5.169a51.344,51.344,0,0,1-2.1-7.885H141.989a.5.5,0,0,1-.5-.5v-17.7a.5.5,0,0,1,.5-.5h10.359a51.342,51.342,0,0,1,2.093-7.886l-8.958-5.172a.5.5,0,0,1-.183-.683l8.851-15.331a.5.5,0,0,1,.683-.183l8.971,5.18a51.94,51.94,0,0,1,5.764-5.766l-5.182-8.975a.5.5,0,0,1,.183-.683L179.9,68.642a.5.5,0,0,1,.683.183l5.169,8.953a51.316,51.316,0,0,1,7.885-2.1V65.32a.5.5,0,0,1,.5-.5h17.7a.5.5,0,0,1,.5.5V75.678a51.3,51.3,0,0,1,7.885,2.092l5.172-8.959a.5.5,0,0,1,.683-.183l15.331,8.851a.5.5,0,0,1,.183.683l-5.18,8.972a52.021,52.021,0,0,1,5.767,5.763l8.975-5.182a.5.5,0,0,1,.683.183l8.851,15.331a.5.5,0,0,1-.183.683l-8.954,5.169a51.343,51.343,0,0,1,2.1,7.885h10.363a.5.5,0,0,1,.5.5v17.7a.5.5,0,0,1-.5.5H253.655a51.349,51.349,0,0,1-2.093,7.886l8.958,5.172a.5.5,0,0,1,.183.683l-8.851,15.33a.5.5,0,0,1-.683.183l-8.971-5.179a51.945,51.945,0,0,1-5.764,5.766l5.182,8.975a.5.5,0,0,1-.183.683L226.1,184.022a.5.5,0,0,1-.683-.183l-5.169-8.953a51.309,51.309,0,0,1-7.885,2.1v10.363A.5.5,0,0,1,211.865,187.844Zm-17.2-1h16.7V176.563a.5.5,0,0,1,.414-.492A50.278,50.278,0,0,0,220.3,173.8a.5.5,0,0,1,.6.22l5.128,8.882,14.465-8.351-5.141-8.9a.5.5,0,0,1,.111-.633,50.918,50.918,0,0,0,6.233-6.235.5.5,0,0,1,.633-.112l8.9,5.138,8.351-14.464-8.887-5.131a.5.5,0,0,1-.22-.6,50.313,50.313,0,0,0,2.263-8.525.5.5,0,0,1,.493-.414h10.276v-16.7H253.232a.5.5,0,0,1-.492-.414,50.313,50.313,0,0,0-2.266-8.524.5.5,0,0,1,.22-.6l8.883-5.128-8.351-14.465-8.9,5.141a.5.5,0,0,1-.633-.111,50.992,50.992,0,0,0-6.236-6.232A.5.5,0,0,1,235.34,87l5.139-8.9-14.465-8.351-5.131,8.887a.5.5,0,0,1-.6.22,50.267,50.267,0,0,0-8.524-2.262.5.5,0,0,1-.414-.493V65.82h-16.7V76.1a.5.5,0,0,1-.414.492A50.281,50.281,0,0,0,185.7,78.86a.5.5,0,0,1-.6-.22l-5.128-8.882L165.5,78.11l5.141,8.9a.5.5,0,0,1-.111.633,50.91,50.91,0,0,0-6.233,6.235.5.5,0,0,1-.633.112l-8.9-5.138-8.351,14.465,8.887,5.131a.5.5,0,0,1,.22.6,50.311,50.311,0,0,0-2.263,8.525.5.5,0,0,1-.493.414H142.489v16.7h10.282a.5.5,0,0,1,.492.414,50.312,50.312,0,0,0,2.266,8.524.5.5,0,0,1-.22.6l-8.883,5.128,8.351,14.465,8.9-5.141a.5.5,0,0,1,.633.111,50.992,50.992,0,0,0,6.236,6.232.5.5,0,0,1,.112.633l-5.139,8.9,14.465,8.351,5.131-8.887a.5.5,0,0,1,.6-.22,50.365,50.365,0,0,0,8.524,2.262.5.5,0,0,1,.414.493ZM203,159.817a33.381,33.381,0,1,1,13.034-2.632A33.277,33.277,0,0,1,203,159.817Zm0-65.97A32.381,32.381,0,1,0,215.646,96.4,32.283,32.283,0,0,0,203,93.847Z" transform="translate(4.612 2.122)"/>
      <path id="Path_9277" data-name="Path 9277" class="cls-4" d="M186.063,292.6v-17.7H175.281a50.652,50.652,0,0,0-2.289-8.609l9.316-5.378-8.851-15.331-9.338,5.391a51.27,51.27,0,0,0-6.3-6.293l5.389-9.334-15.331-8.851-5.381,9.32a50.62,50.62,0,0,0-8.609-2.285V222.746h-17.7v10.781a50.627,50.627,0,0,0-8.609,2.289L102.2,226.5l-15.331,8.851,5.391,9.337a51.279,51.279,0,0,0-6.294,6.3L76.633,245.6l-8.851,15.33,9.32,5.381a50.66,50.66,0,0,0-2.286,8.61H64.04v17.7H74.821a50.653,50.653,0,0,0,2.289,8.609l-9.316,5.378,8.851,15.331,9.338-5.391a51.27,51.27,0,0,0,6.3,6.293l-5.389,9.334,15.331,8.851,5.381-9.32a50.719,50.719,0,0,0,8.609,2.285V344.77h17.7V333.989a50.634,50.634,0,0,0,8.609-2.289l5.378,9.315,15.331-8.85-5.391-9.338a51.279,51.279,0,0,0,6.294-6.3l9.333,5.388,8.851-15.33L173,301.206a50.658,50.658,0,0,0,2.286-8.61Zm-61.011,24.147a32.985,32.985,0,1,1,32.985-32.986,32.986,32.986,0,0,1-32.985,32.986" transform="translate(2.08 7.235)"/>
      <path id="Path_9278" data-name="Path 9278" class="cls-5" d="M133.915,345.27h-17.7a.5.5,0,0,1-.5-.5V334.411a51.4,51.4,0,0,1-7.885-2.092l-5.172,8.958a.5.5,0,0,1-.683.183L86.641,332.61a.5.5,0,0,1-.183-.683l5.18-8.972a51.941,51.941,0,0,1-5.766-5.763L76.9,322.374a.5.5,0,0,1-.683-.183l-8.851-15.331a.5.5,0,0,1,.183-.683l8.954-5.169a51.346,51.346,0,0,1-2.1-7.885H64.04a.5.5,0,0,1-.5-.5v-17.7a.5.5,0,0,1,.5-.5H74.4a51.349,51.349,0,0,1,2.093-7.886l-8.958-5.172a.5.5,0,0,1-.183-.683l8.851-15.33a.5.5,0,0,1,.683-.183l8.971,5.179a51.945,51.945,0,0,1,5.764-5.766L86.436,235.6a.5.5,0,0,1,.183-.683l15.331-8.851a.5.5,0,0,1,.683.183L107.8,235.2a51.311,51.311,0,0,1,7.885-2.1V222.746a.5.5,0,0,1,.5-.5h17.7a.5.5,0,0,1,.5.5V233.1a51.3,51.3,0,0,1,7.885,2.092l5.172-8.959a.5.5,0,0,1,.683-.183l15.331,8.851a.5.5,0,0,1,.183.683l-5.18,8.972a51.938,51.938,0,0,1,5.766,5.763l8.976-5.182a.5.5,0,0,1,.683.183l8.851,15.331a.5.5,0,0,1-.183.683l-8.954,5.169a51.344,51.344,0,0,1,2.1,7.885h10.363a.5.5,0,0,1,.5.5v17.7a.5.5,0,0,1-.5.5H175.705a51.344,51.344,0,0,1-2.093,7.886l8.958,5.172a.5.5,0,0,1,.183.683l-8.851,15.33a.5.5,0,0,1-.683.183l-8.971-5.179a51.942,51.942,0,0,1-5.764,5.766l5.182,8.976a.5.5,0,0,1-.183.683l-15.331,8.85a.5.5,0,0,1-.683-.183l-5.169-8.953a51.317,51.317,0,0,1-7.885,2.1V344.77A.5.5,0,0,1,133.915,345.27Zm-17.2-1h16.7V333.989a.5.5,0,0,1,.414-.492,50.288,50.288,0,0,0,8.524-2.266.5.5,0,0,1,.6.22l5.128,8.882,14.465-8.35-5.141-8.9a.5.5,0,0,1,.111-.633,50.914,50.914,0,0,0,6.233-6.235.5.5,0,0,1,.633-.112l8.9,5.138,8.351-14.464-8.887-5.131a.5.5,0,0,1-.22-.6,50.311,50.311,0,0,0,2.263-8.525.5.5,0,0,1,.493-.414h10.276v-16.7H175.281a.5.5,0,0,1-.492-.414,50.311,50.311,0,0,0-2.266-8.524.5.5,0,0,1,.22-.6l8.883-5.128-8.351-14.465-8.9,5.141a.5.5,0,0,1-.633-.111,50.906,50.906,0,0,0-6.235-6.232.5.5,0,0,1-.112-.633l5.139-8.9-14.465-8.351-5.131,8.887a.5.5,0,0,1-.6.22,50.266,50.266,0,0,0-8.524-2.262.5.5,0,0,1-.414-.493V223.246h-16.7v10.281a.5.5,0,0,1-.414.492,50.277,50.277,0,0,0-8.524,2.266.5.5,0,0,1-.6-.22l-5.128-8.882-14.465,8.351,5.141,8.9a.5.5,0,0,1-.111.633,50.916,50.916,0,0,0-6.233,6.235.5.5,0,0,1-.633.112l-8.9-5.138-8.351,14.464,8.887,5.131a.5.5,0,0,1,.22.6,50.315,50.315,0,0,0-2.263,8.525.5.5,0,0,1-.493.414H64.54v16.7H74.821a.5.5,0,0,1,.492.414,50.313,50.313,0,0,0,2.266,8.524.5.5,0,0,1-.22.6l-8.883,5.128,8.351,14.465,8.9-5.141a.5.5,0,0,1,.633.111A50.909,50.909,0,0,0,92.6,322.46a.5.5,0,0,1,.112.633l-5.139,8.9,14.465,8.351,5.131-8.887a.5.5,0,0,1,.6-.22A50.37,50.37,0,0,0,116.3,333.5a.5.5,0,0,1,.414.493Zm8.339-27.027a33.381,33.381,0,1,1,13.034-2.632A33.277,33.277,0,0,1,125.051,317.243Zm0-65.97a32.381,32.381,0,1,0,12.644,2.553A32.282,32.282,0,0,0,125.051,251.273Z" transform="translate(2.08 7.235)"/>
      <path id="Path_9279" data-name="Path 9279" class="cls-4" d="M619.93,289.43V277.479h-7.278a34.231,34.231,0,0,0-1.546-5.812l6.289-3.63-5.975-10.351-6.3,3.639a34.713,34.713,0,0,0-4.251-4.249l3.637-6.3-10.35-5.976-3.632,6.292a34.243,34.243,0,0,0-5.813-1.543v-7.275H572.758v7.278a34.239,34.239,0,0,0-5.812,1.546l-3.63-6.29-10.35,5.976,3.638,6.3a34.713,34.713,0,0,0-4.249,4.251l-6.3-3.637-5.976,10.35,6.292,3.632a34.217,34.217,0,0,0-1.542,5.813h-7.275v11.951h7.278a34.2,34.2,0,0,0,1.546,5.811l-6.289,3.631,5.975,10.35,6.3-3.639a34.655,34.655,0,0,0,4.251,4.25l-3.637,6.3,10.35,5.975,3.632-6.292a34.239,34.239,0,0,0,5.813,1.544v7.275h11.951v-7.278a34.2,34.2,0,0,0,5.811-1.546l3.631,6.289,10.35-5.975-3.638-6.3a34.632,34.632,0,0,0,4.249-4.25l6.3,3.637,5.976-10.35-6.292-3.633a34.237,34.237,0,0,0,1.543-5.812Zm-41.188,16.3a22.267,22.267,0,1,1,22.267-22.267,22.268,22.268,0,0,1-22.267,22.267" transform="translate(17.46 7.869)"/>
      <path id="Path_9280" data-name="Path 9280" class="cls-5" d="M584.727,325.151H572.776a.5.5,0,0,1-.5-.5v-6.857a34.873,34.873,0,0,1-5.088-1.35l-3.424,5.931a.5.5,0,0,1-.683.183l-10.35-5.975a.5.5,0,0,1-.183-.683l3.429-5.939a35.289,35.289,0,0,1-3.72-3.719l-5.942,3.431a.5.5,0,0,1-.683-.183l-5.975-10.35a.5.5,0,0,1,.183-.683l5.928-3.423a34.827,34.827,0,0,1-1.352-5.086h-6.861a.5.5,0,0,1-.5-.5V277.5a.5.5,0,0,1,.5-.5h6.857a34.867,34.867,0,0,1,1.349-5.088l-5.931-3.424a.5.5,0,0,1-.183-.683l5.976-10.35a.5.5,0,0,1,.683-.183l5.939,3.429a35.349,35.349,0,0,1,3.718-3.72l-3.43-5.943a.5.5,0,0,1,.183-.683l10.35-5.976a.5.5,0,0,1,.683.183l3.422,5.929a34.88,34.88,0,0,1,5.087-1.352v-6.86a.5.5,0,0,1,.5-.5h11.951a.5.5,0,0,1,.5.5v6.857a34.879,34.879,0,0,1,5.088,1.349l3.424-5.931a.5.5,0,0,1,.683-.183l10.35,5.976a.5.5,0,0,1,.183.683l-3.429,5.939a35.341,35.341,0,0,1,3.72,3.718l5.943-3.431a.5.5,0,0,1,.683.183l5.975,10.351a.5.5,0,0,1-.183.683l-5.928,3.422a34.87,34.87,0,0,1,1.352,5.087h6.861a.5.5,0,0,1,.5.5V289.43a.5.5,0,0,1-.5.5h-6.857a34.888,34.888,0,0,1-1.349,5.087l5.931,3.425a.5.5,0,0,1,.183.683l-5.976,10.35a.5.5,0,0,1-.683.183l-5.939-3.429a35.259,35.259,0,0,1-3.718,3.719l3.43,5.943a.5.5,0,0,1-.183.683l-10.35,5.975a.5.5,0,0,1-.683-.183l-3.423-5.928a34.832,34.832,0,0,1-5.086,1.352v6.861A.5.5,0,0,1,584.727,325.151Zm-11.451-1h10.951v-6.778a.5.5,0,0,1,.414-.492,33.8,33.8,0,0,0,5.726-1.523.5.5,0,0,1,.6.22l3.381,5.856,9.484-5.475-3.388-5.871a.5.5,0,0,1,.111-.633,34.231,34.231,0,0,0,4.187-4.188.5.5,0,0,1,.633-.112l5.867,3.387,5.476-9.484-5.859-3.383a.5.5,0,0,1-.22-.6,33.841,33.841,0,0,0,1.52-5.727.5.5,0,0,1,.493-.414h6.775V277.979h-6.778a.5.5,0,0,1-.492-.414,33.837,33.837,0,0,0-1.523-5.727.5.5,0,0,1,.22-.6l5.856-3.38-5.475-9.484-5.87,3.389a.5.5,0,0,1-.633-.111,34.317,34.317,0,0,0-4.19-4.187.5.5,0,0,1-.112-.633l3.387-5.867-9.484-5.476-3.382,5.859a.5.5,0,0,1-.6.22,33.842,33.842,0,0,0-5.728-1.52.5.5,0,0,1-.414-.493v-6.775H573.258v6.778a.5.5,0,0,1-.414.492,33.845,33.845,0,0,0-5.727,1.523.5.5,0,0,1-.6-.22l-3.38-5.857-9.484,5.476,3.388,5.87a.5.5,0,0,1-.111.633,34.313,34.313,0,0,0-4.187,4.189.5.5,0,0,1-.633.112l-5.867-3.387-5.476,9.484,5.859,3.382a.5.5,0,0,1,.22.6,33.822,33.822,0,0,0-1.52,5.728.5.5,0,0,1-.493.414h-6.775v10.951h6.778a.5.5,0,0,1,.492.414,33.805,33.805,0,0,0,1.523,5.726.5.5,0,0,1-.22.6l-5.856,3.381,5.475,9.483,5.87-3.389a.5.5,0,0,1,.633.111,34.255,34.255,0,0,0,4.189,4.188.5.5,0,0,1,.112.633l-3.387,5.867,9.484,5.475,3.382-5.859a.5.5,0,0,1,.6-.22,33.84,33.84,0,0,0,5.728,1.521.5.5,0,0,1,.414.493Zm5.467-17.92a22.7,22.7,0,1,1,8.862-1.789A22.625,22.625,0,0,1,578.743,306.231Zm0-44.535a21.7,21.7,0,1,0,8.473,1.71A21.632,21.632,0,0,0,578.743,261.7Z" transform="translate(17.46 7.869)"/>
      <path id="Path_9281" data-name="Path 9281" class="cls-4" d="M563.355,125.483V113.532h-7.278a34.238,34.238,0,0,0-1.546-5.812l6.289-3.63L554.846,93.74l-6.3,3.639a34.7,34.7,0,0,0-4.251-4.249l3.637-6.3-10.35-5.976-3.632,6.292a34.145,34.145,0,0,0-5.813-1.543V78.329H516.183v7.278a34.1,34.1,0,0,0-5.811,1.546l-3.631-6.29-10.35,5.976,3.638,6.3a34.634,34.634,0,0,0-4.249,4.251l-6.3-3.637-5.975,10.35,6.291,3.632a34.217,34.217,0,0,0-1.543,5.813H480.98V125.5h7.278a34.2,34.2,0,0,0,1.546,5.811l-6.289,3.631,5.975,10.35,6.3-3.639a34.643,34.643,0,0,0,4.251,4.25l-3.637,6.3,10.35,5.975,3.633-6.292a34.21,34.21,0,0,0,5.812,1.544V160.7h11.951v-7.278a34.236,34.236,0,0,0,5.812-1.546l3.63,6.289,10.351-5.975-3.64-6.3a34.626,34.626,0,0,0,4.249-4.25l6.3,3.637,5.976-10.35-6.292-3.633a34.226,34.226,0,0,0,1.543-5.812Zm-41.188,16.3a22.267,22.267,0,1,1,22.268-22.267,22.268,22.268,0,0,1-22.268,22.267" transform="translate(15.622 2.544)"/>
      <path id="Path_9282" data-name="Path 9282" class="cls-5" d="M528.152,161.2H516.2a.5.5,0,0,1-.5-.5v-6.857a34.838,34.838,0,0,1-5.087-1.35l-3.425,5.931a.5.5,0,0,1-.683.183l-10.35-5.975a.5.5,0,0,1-.183-.683l3.429-5.939a35.272,35.272,0,0,1-3.72-3.719l-5.942,3.431a.5.5,0,0,1-.683-.183l-5.975-10.35a.5.5,0,0,1,.183-.683l5.928-3.423A34.838,34.838,0,0,1,487.84,126h-6.86a.5.5,0,0,1-.5-.5V113.55a.5.5,0,0,1,.5-.5h6.857a34.853,34.853,0,0,1,1.349-5.088l-5.93-3.424a.5.5,0,0,1-.183-.683l5.975-10.35a.5.5,0,0,1,.683-.183l5.939,3.429a35.253,35.253,0,0,1,3.718-3.72l-3.43-5.942a.5.5,0,0,1,.183-.683l10.35-5.976a.5.5,0,0,1,.683.183l3.423,5.929a34.736,34.736,0,0,1,5.086-1.352v-6.86a.5.5,0,0,1,.5-.5h11.951a.5.5,0,0,1,.5.5v6.857a34.772,34.772,0,0,1,5.088,1.349l3.424-5.931a.5.5,0,0,1,.683-.183l10.35,5.976a.5.5,0,0,1,.183.683l-3.429,5.939a35.333,35.333,0,0,1,3.72,3.718l5.943-3.431a.5.5,0,0,1,.683.183l5.975,10.351a.5.5,0,0,1-.183.683l-5.928,3.422a34.87,34.87,0,0,1,1.352,5.087h6.86a.5.5,0,0,1,.5.5v11.951a.5.5,0,0,1-.5.5H556.5a34.867,34.867,0,0,1-1.349,5.087l5.931,3.425a.5.5,0,0,1,.183.683l-5.976,10.35a.5.5,0,0,1-.683.183l-5.939-3.429A35.246,35.246,0,0,1,544.946,146l3.431,5.943a.5.5,0,0,1-.183.683L537.844,158.6a.5.5,0,0,1-.683-.183l-3.422-5.928a34.877,34.877,0,0,1-5.087,1.352V160.7A.5.5,0,0,1,528.152,161.2Zm-11.451-1h10.951v-6.778a.5.5,0,0,1,.414-.492,33.843,33.843,0,0,0,5.727-1.523.5.5,0,0,1,.6.22l3.38,5.856,9.485-5.475-3.39-5.871a.5.5,0,0,1,.111-.633,34.223,34.223,0,0,0,4.187-4.188.5.5,0,0,1,.633-.112l5.867,3.387,5.476-9.484-5.859-3.383a.5.5,0,0,1-.22-.6,33.833,33.833,0,0,0,1.52-5.727.5.5,0,0,1,.493-.414h6.775V114.032h-6.778a.5.5,0,0,1-.492-.414,33.843,33.843,0,0,0-1.523-5.727.5.5,0,0,1,.22-.6l5.856-3.38-5.475-9.485-5.87,3.389a.5.5,0,0,1-.633-.111,34.307,34.307,0,0,0-4.19-4.187.5.5,0,0,1-.112-.633l3.387-5.867-9.484-5.476L534.38,87.4a.5.5,0,0,1-.6.22,33.741,33.741,0,0,0-5.728-1.52.5.5,0,0,1-.414-.493V78.829H516.683v6.778a.5.5,0,0,1-.414.493,33.7,33.7,0,0,0-5.726,1.523.5.5,0,0,1-.6-.22l-3.381-5.857-9.484,5.476,3.389,5.87a.5.5,0,0,1-.111.633,34.228,34.228,0,0,0-4.187,4.189.5.5,0,0,1-.633.112l-5.867-3.387-5.475,9.484,5.858,3.382a.5.5,0,0,1,.22.6,33.828,33.828,0,0,0-1.52,5.728.5.5,0,0,1-.493.414H481.48V125h6.778a.5.5,0,0,1,.492.414,33.8,33.8,0,0,0,1.523,5.726.5.5,0,0,1-.22.6l-5.856,3.381,5.475,9.484,5.87-3.389a.5.5,0,0,1,.633.111,34.244,34.244,0,0,0,4.189,4.188.5.5,0,0,1,.112.633l-3.387,5.867,9.484,5.475,3.383-5.859a.5.5,0,0,1,.6-.22,33.8,33.8,0,0,0,5.727,1.521.5.5,0,0,1,.414.493Zm5.467-17.92a22.7,22.7,0,1,1,8.862-1.789A22.625,22.625,0,0,1,522.168,142.284Zm0-44.535a21.7,21.7,0,1,0,8.473,1.71A21.632,21.632,0,0,0,522.168,97.749Z" transform="translate(15.622 2.544)"/>
    </g>
  </g>
  <g id="Group_9786" data-name="Group 9786">
    <g id="Group_9785" data-name="Group 9785" class="cls-2">
      <path id="Path_9283" data-name="Path 9283" class="cls-6" d="M362.259,368.345q-31.978,0-53-13.14a81.669,81.669,0,0,1-31.536-36.136q-10.513-23-10.513-53.218v-159q0-31.094,10.074-54.531a78.657,78.657,0,0,1,31.1-36.575q21.024-13.139,53.875-13.14,32.41,0,53.218,13.14a79.125,79.125,0,0,1,30.88,36.575q10.071,23.437,10.074,54.531v159q0,30.222-10.512,53.218A81.68,81.68,0,0,1,414.382,355.2q-21.024,13.141-52.123,13.14m0-59.569q11.826,0,17.082-7.446a42.751,42.751,0,0,0,7.008-17.74,114.562,114.562,0,0,0,1.752-19.053V108.167a140.032,140.032,0,0,0-1.533-20.148,42.562,42.562,0,0,0-6.79-18.178q-5.255-7.658-17.52-7.665T344.52,69.841a40.824,40.824,0,0,0-7.009,18.178,139.151,139.151,0,0,0-1.533,20.148V264.536a113.8,113.8,0,0,0,1.752,19.053,39.535,39.535,0,0,0,7.446,17.74q5.687,7.454,17.082,7.446" transform="translate(8.679 0.085)"/>
      <path id="Path_9284" data-name="Path 9284" class="cls-5" d="M362.275,368.878c-21.316,0-39.239-4.448-53.273-13.22A82.54,82.54,0,0,1,277.27,319.3c-7.006-15.327-10.559-33.3-10.559-53.433v-159c0-20.716,3.4-39.131,10.116-54.737a79.5,79.5,0,0,1,31.3-36.807C322.161,6.554,340.38,2.107,362.275,2.107c21.6,0,39.6,4.448,53.494,13.22a79.96,79.96,0,0,1,31.078,36.806c6.713,15.622,10.117,34.038,10.117,54.737v159c0,20.127-3.552,38.1-10.559,53.433a82.547,82.547,0,0,1-31.732,36.359c-14.035,8.772-31.663,13.22-52.4,13.22m0-365.739c-21.7,0-39.733,4.394-53.6,13.062a78.48,78.48,0,0,0-30.9,36.339c-6.657,15.477-10.033,33.755-10.033,54.329v159c0,19.981,3.521,37.813,10.465,53a81.522,81.522,0,0,0,31.341,35.913c13.867,8.668,31.606,13.063,52.726,13.063,20.538,0,37.983-4.4,51.849-13.063a81.522,81.522,0,0,0,31.341-35.913c6.945-15.192,10.466-33.024,10.466-53v-159c0-20.558-3.376-38.837-10.033-54.329A78.947,78.947,0,0,0,415.218,16.2C401.493,7.534,383.681,3.139,362.275,3.139m0,306.169c-7.734,0-13.619-2.573-17.492-7.649a40.223,40.223,0,0,1-7.545-17.966,114.887,114.887,0,0,1-1.759-19.14V108.183a140.164,140.164,0,0,1,1.539-20.223,41.529,41.529,0,0,1,7.1-18.4c3.737-5.231,9.846-7.882,18.159-7.882s14.354,2.655,17.945,7.89A43.264,43.264,0,0,1,387.1,87.96a141.2,141.2,0,0,1,1.539,20.223v156.37a115.671,115.671,0,0,1-1.759,19.14,43.451,43.451,0,0,1-7.1,17.951c-3.586,5.085-9.475,7.664-17.5,7.664m0-246.6c-7.961,0-13.788,2.506-17.319,7.449a40.509,40.509,0,0,0-6.918,17.952,139.116,139.116,0,0,0-1.528,20.073v156.37a113.806,113.806,0,0,0,1.745,18.967,39.219,39.219,0,0,0,7.347,17.513c3.668,4.806,9.277,7.243,16.673,7.243,7.673,0,13.279-2.432,16.66-7.227a42.424,42.424,0,0,0,6.922-17.528,114.587,114.587,0,0,0,1.745-18.967V108.183a140.146,140.146,0,0,0-1.528-20.073,42.262,42.262,0,0,0-6.7-17.96c-3.389-4.937-9.139-7.441-17.095-7.441" transform="translate(8.663 0.068)"/>
    </g>
  </g>
  <g id="Group_9788" data-name="Group 9788">
    <g id="Group_9787" data-name="Group 9787" class="cls-2">
      <path id="Path_9285" data-name="Path 9285" class="cls-7" d="M268.075,179.793l3.833,55.247-23.951-11.177-6.068,24.271s51.415,28.741,56.525,27.783-7.665-112.73-7.665-112.73Z" transform="translate(7.857 5.3)"/>
      <path id="Path_9286" data-name="Path 9286" class="cls-5" d="M290.748,162.687a.5.5,0,0,1,.5.443c.032.279,3.224,28.27,5.75,56.017,1.484,16.3,2.452,29.331,2.876,38.729.252,5.59.313,9.945.18,12.944a24.415,24.415,0,0,1-.392,3.778c-.166.773-.447,1.678-1.153,1.81a2.051,2.051,0,0,1-.38.032c-1.577,0-5.417-1.437-11.739-4.392-4.941-2.31-11.349-5.529-19.048-9.569-13.1-6.875-25.57-13.84-25.694-13.91a.5.5,0,0,1-.241-.558l6.068-24.271a.5.5,0,0,1,.7-.332l23.183,10.818-3.774-54.4a.5.5,0,0,1,.2-.438l22.673-16.606A.5.5,0,0,1,290.748,162.687ZM298.3,275.43c.1-.09.634-.773.782-5.364.1-3.116.015-7.543-.254-13.158-.454-9.471-1.432-22.443-2.906-38.554-2.262-24.718-5.022-49.4-5.57-54.255l-21.756,15.934,3.813,54.972a.5.5,0,0,1-.71.488l-23.4-10.92-5.828,23.311c2.072,1.154,13.445,7.47,25.339,13.712,21.807,11.443,28.525,13.845,30.32,13.845A1.189,1.189,0,0,0,298.3,275.43Z" transform="translate(7.857 5.3)"/>
      <path id="Path_9287" data-name="Path 9287" class="cls-7" d="M300.914,312.671s27.581-9.481,38.355-18.531-45.681-118.511-45.681-118.511.862,100.412,7.326,137.042" transform="translate(9.536 5.704)"/>
      <path id="Path_9288" data-name="Path 9288" class="cls-5" d="M300.915,313.171a.5.5,0,0,1-.492-.413c-1.478-8.373-2.782-20.794-3.878-36.919-.876-12.891-1.622-28.169-2.216-45.408-1.012-29.349-1.237-54.547-1.239-54.8a.5.5,0,0,1,.944-.233c.141.274,14.266,27.7,26.893,55.887,7.42,16.561,12.879,30.141,16.227,40.363a87.475,87.475,0,0,1,3.743,14.734c.566,4.264.14,6.926-1.3,8.139a61.68,61.68,0,0,1-10.627,6.773c-3.64,1.919-7.919,3.925-12.717,5.964-8.164,3.468-15.1,5.861-15.17,5.884A.5.5,0,0,1,300.915,313.171Zm-6.8-135.423c.077,6.674.374,28.224,1.216,52.651.594,17.227,1.339,32.493,2.215,45.373,1.068,15.72,2.335,27.9,3.764,36.232,1.8-.635,7.749-2.776,14.556-5.668,10.736-4.561,18.718-8.911,23.085-12.579,1.571-1.32,2.371-6.173-2.746-21.8-3.337-10.188-8.783-23.735-16.188-40.263C309.3,207.794,297.514,184.429,294.11,177.748Z" transform="translate(9.536 5.704)"/>
      <path id="Path_9289" data-name="Path 9289" class="cls-8" d="M415.695,274.109l-3.188.475a2.945,2.945,0,0,1,.034.472c-.242,4.1-22.406,15.01-38.054,20.915q-5.134,3.974-13.76,3.987c-.053,0-.1-.006-.153-.007-12.078,1.163-35.281-4.155-40.527-7.742l-5.658,57.859h0c.911.447,1.839.876,2.776,1.3q18.39,8.148,43.558,8.161,29.045,0,49.3-11.468l.3-.167c.853-.488,1.7-.988,2.523-1.506,1-.625,1.976-1.27,2.939-1.928.3-.2.582-.409.875-.613q1.013-.712,2-1.445.468-.35.931-.705.987-.759,1.945-1.544c.259-.213.522-.421.778-.637.878-.735,1.742-1.483,2.584-2.251l.005,0c-3.607-25.6-9.215-63.15-9.215-63.15" transform="translate(10.211 8.903)"/>
      <path id="Path_9290" data-name="Path 9290" class="cls-5" d="M415.7,273.609a.5.5,0,0,1,.494.426c.056.376,5.649,37.849,9.215,63.154a.5.5,0,0,1-.174.453c-.784.715-1.631,1.452-2.59,2.255-.166.14-.337.278-.5.412l-.28.228c-.683.557-1.323,1.065-1.958,1.553-.315.241-.63.48-.937.709-.6.447-1.258.922-2.014,1.454l-.312.22c-.185.131-.376.266-.569.4-1.059.723-2.027,1.357-2.956,1.939-.779.488-1.61.984-2.54,1.516l-.3.168a84.809,84.809,0,0,1-22.589,8.653,119.485,119.485,0,0,1-26.962,2.881,128.516,128.516,0,0,1-23.569-2.052,91.58,91.58,0,0,1-20.191-6.152c-1.091-.49-1.977-.9-2.789-1.3a.5.5,0,0,1-.286-.5l5.658-57.859a.5.5,0,0,1,.78-.364c2.252,1.54,8.1,3.492,15.273,5.094a104.086,104.086,0,0,0,21.233,2.724c1.342,0,2.583-.054,3.691-.161a.5.5,0,0,1,.058,0l.094,0,.049,0a27.434,27.434,0,0,0,7.617-.98,17.4,17.4,0,0,0,5.837-2.9.5.5,0,0,1,.13-.072,233.853,233.853,0,0,0,24.747-11.109,83.742,83.742,0,0,0,9.344-5.578c3.1-2.228,3.613-3.331,3.64-3.79a2.454,2.454,0,0,0-.031-.379.5.5,0,0,1,.422-.558l3.188-.475A.5.5,0,0,1,415.7,273.609Zm8.682,63.457c-3.344-23.708-8.432-57.883-9.1-62.389l-2.232.332c0,.026,0,.051,0,.074-.068,1.149-1.394,2.635-4.055,4.545a84.691,84.691,0,0,1-9.46,5.649,234.98,234.98,0,0,1-24.792,11.134,18.417,18.417,0,0,1-6.11,3.026,28.428,28.428,0,0,1-7.9,1.02c-.046,0-.085,0-.117,0h-.022c-1.13.107-2.393.162-3.753.162-12.056,0-30.528-4.262-36.368-7.559l-5.546,56.716c.72.349,1.509.715,2.453,1.139a90.575,90.575,0,0,0,19.968,6.082,127.515,127.515,0,0,0,23.385,2.035,118.487,118.487,0,0,0,26.735-2.855,83.808,83.808,0,0,0,22.323-8.548l.295-.167c.917-.525,1.737-1.014,2.505-1.5.918-.574,1.874-1.2,2.923-1.917.186-.127.373-.259.554-.388l.316-.223c.748-.526,1.4-1,1.99-1.437.3-.227.615-.463.926-.7.626-.482,1.259-.984,1.933-1.534l.284-.231c.162-.131.329-.266.488-.4C422.874,338.4,423.654,337.72,424.378,337.066Z" transform="translate(10.211 8.903)"/>
      <path id="Path_9291" data-name="Path 9291" class="cls-4" d="M293.051,211.25s25.552,62.459,25.867,64.667-2.523,16.4,1.578,20.189,31.545,10.095,43.217,7.886,49.526-19.242,49.842-24.605S376.015,169.3,371.283,156.678s-23.974-17.035-36.908-15.773-44.163,9.464-49.841,17.35,8.517,53,8.517,53" transform="translate(9.198 4.57)"/>
      <path id="Path_9292" data-name="Path 9292" class="cls-5" d="M338.778,140.2h0a53.707,53.707,0,0,1,9.865.924,46.244,46.244,0,0,1,9.7,2.889,29.893,29.893,0,0,1,8.174,5.052,18.882,18.882,0,0,1,5.231,7.44c2.245,5.986,12.788,35.01,23.031,64.085,5.685,16.137,10.207,29.252,13.439,38.981,5.946,17.895,5.86,19.365,5.831,19.848-.047.793-.674,1.724-1.918,2.848a34.782,34.782,0,0,1-4.594,3.342,143.4,143.4,0,0,1-14.435,7.718c-11.576,5.5-23.625,10.085-29.3,11.159a32.686,32.686,0,0,1-5.947.466,106.08,106.08,0,0,1-22.419-2.968c-6.012-1.393-13.184-3.571-15.282-5.508-1.447-1.335-2.224-3.872-2.376-7.755a72.36,72.36,0,0,1,.434-9.194,25.231,25.231,0,0,0,.209-3.537c-.275-1.82-18.742-47.212-25.835-64.549q-.008-.019-.014-.039c-.036-.113-3.587-11.436-6.4-23.578a147.686,147.686,0,0,1-3.2-17.911c-.61-6.113-.231-10.022,1.157-11.949s4.26-3.945,8.552-6.018a105.477,105.477,0,0,1,13.9-5.325c9.634-3.036,20.783-5.533,27.743-6.212C335.75,140.268,337.248,140.2,338.778,140.2Zm19.08,163.753a31.7,31.7,0,0,0,5.761-.448,82.915,82.915,0,0,0,12.582-4c5.22-2,11.072-4.516,16.477-7.082a142.423,142.423,0,0,0,14.33-7.66c5.371-3.394,6.019-4.909,6.048-5.4.073-1.247-2.326-10.5-19.215-58.439-10.241-29.069-20.781-58.083-23.025-64.066a17.894,17.894,0,0,0-4.961-7.045,28.9,28.9,0,0,0-7.9-4.879,45.246,45.246,0,0,0-9.492-2.825,53.456,53.456,0,0,0-9.68-.907h0c-1.5,0-2.963.069-4.355.2-6.9.673-17.966,3.152-27.54,6.17-11.714,3.692-19.507,7.589-21.944,10.974-1.559,2.165-2.44,8.962,2.21,29.05,2.747,11.865,6.2,22.944,6.372,23.484.262.641,6.556,16.031,12.808,31.488,12.878,31.838,13.032,32.922,13.083,33.279a23.213,23.213,0,0,1-.2,3.77,71.567,71.567,0,0,0-.43,9.062c.139,3.555.831,5.93,2.055,7.06,1.611,1.487,7.432,3.555,14.83,5.269A106.633,106.633,0,0,0,357.858,303.95Z" transform="translate(9.198 4.57)"/>
      <path id="Path_9293" data-name="Path 9293" class="cls-4" d="M294.939,153.286s-3.154,28.706-1.262,34.7,10.5,22.481,10.5,22.481S318.6,192.4,321.436,190.509s29.022,14.826,29.022,14.826.946-17.981-2.839-32.807S337.21,141.613,335,138.775s-2.208,7.57-10.409,14.51-29.653,0-29.653,0" transform="translate(9.519 4.492)"/>
      <path id="Path_9294" data-name="Path 9294" class="cls-5" d="M334.307,137.8h0a1.42,1.42,0,0,1,1.088.672c2.377,3.055,9.015,19.473,12.708,33.936a110.282,110.282,0,0,1,2.854,22.068c.235,6.3,0,10.843,0,10.889a.5.5,0,0,1-.768.4c-.059-.037-5.931-3.783-12.326-7.478-10.609-6.131-14.435-7.419-15.777-7.419h0a.708.708,0,0,0-.372.065c-2.742,1.828-17,19.674-17.143,19.854a.5.5,0,0,1-.834-.08c-.352-.675-8.652-16.6-10.536-22.562-.8-2.546-.838-9.2-.1-19.783.546-7.845,1.334-15.05,1.342-15.122a.5.5,0,0,1,.651-.421c.095.031,9.563,3.06,18.166,3.06,4.98,0,8.684-1,11.01-2.966,4.482-3.793,6.44-8.588,7.736-11.761C332.886,138.985,333.372,137.8,334.307,137.8Zm15.686,66.653c.055-1.6.138-5.289-.036-9.95a109.263,109.263,0,0,0-2.823-21.847,195.776,195.776,0,0,0-6.882-21.316c-2.327-6.026-4.543-10.836-5.646-12.254a.889.889,0,0,0-.3-.284c-.04.021-.2.133-.492.689-.261.5-.551,1.211-.887,2.034a43.262,43.262,0,0,1-2.733,5.761,24.221,24.221,0,0,1-5.283,6.385c-2.512,2.125-6.433,3.2-11.656,3.2a58.848,58.848,0,0,1-12.563-1.554c-2.466-.546-4.4-1.1-5.324-1.374-.438,4.157-2.907,28.542-1.218,33.893,1.64,5.194,8.477,18.549,10.116,21.719,2.572-3.207,14.283-17.723,16.889-19.461a1.632,1.632,0,0,1,.927-.233h0c1.215,0,3.415.782,6.726,2.39,2.568,1.247,5.783,2.985,9.554,5.165C343.458,200.356,348.218,203.329,349.994,204.449Z" transform="translate(9.519 4.492)"/>
      <path id="Path_9295" data-name="Path 9295" class="cls-4" d="M292.625,158.362a111.7,111.7,0,0,0,11.919,21.113,103.632,103.632,0,0,0,19.41,20.091s8.854-22.816,11.238-36.437-1.7-27.242-1.7-27.242-1.7,20.432-8.854,24.518-32.01-2.043-32.01-2.043" transform="translate(9.505 4.414)"/>
      <path id="Path_9296" data-name="Path 9296" class="cls-5" d="M333.489,135.387a.5.5,0,0,1,.479.356,65.056,65.056,0,0,1,1.761,8.587,62.284,62.284,0,0,1-.045,18.885c-.683,3.9-2.37,11.128-6.532,23.4-2.486,7.332-4.71,13.074-4.732,13.131a.5.5,0,0,1-.768.218c-.028-.021-2.874-2.185-6.679-5.737a97.61,97.61,0,0,1-12.837-14.464,125.121,125.121,0,0,1-9.061-14.959c-1.947-3.809-2.905-6.235-2.915-6.259a.5.5,0,0,1,.585-.668c.139.034,14.04,3.434,23.872,3.434,3.6,0,6.216-.45,7.77-1.339,2.8-1.6,5.173-6.254,6.867-13.461a83.2,83.2,0,0,0,1.736-10.665.5.5,0,0,1,.446-.456Zm-9.76,63.369c1.434-3.768,8.842-23.553,10.97-35.713a61.264,61.264,0,0,0,.043-18.553c-.333-2.355-.733-4.356-1.064-5.819-.267,2.036-.725,4.981-1.447,8.058a43.358,43.358,0,0,1-2.742,8.334c-1.333,2.849-2.883,4.793-4.6,5.777s-4.489,1.471-8.266,1.471c-8.444,0-19.813-2.467-23.153-3.236.441,1.023,1.273,2.874,2.509,5.291a124.118,124.118,0,0,0,8.98,14.822,96.587,96.587,0,0,0,12.692,14.3C320.46,196.116,322.742,197.975,323.728,198.756Z" transform="translate(9.505 4.414)"/>
      <path id="Path_9297" data-name="Path 9297" class="cls-5" d="M311.324,160.843a144.274,144.274,0,0,1-18.7-3.187,111.678,111.678,0,0,0,11.919,21.112c.788,1.117,1.61,2.2,2.443,3.25l14.088-16.3Z" transform="translate(9.505 5.121)"/>
      <path id="Path_9298" data-name="Path 9298" class="cls-5" d="M292.625,157.156a.5.5,0,0,1,.12.015,144.894,144.894,0,0,0,18.624,3.175.5.5,0,0,1,.179.051l9.751,4.877a.5.5,0,0,1,.155.774l-14.088,16.3a.5.5,0,0,1-.771-.017c-.968-1.226-1.749-2.266-2.459-3.272a125.09,125.09,0,0,1-9.061-14.958c-1.947-3.809-2.905-6.235-2.915-6.259a.5.5,0,0,1,.465-.683Zm18.56,4.177a143.716,143.716,0,0,1-17.721-2.965c.441,1.023,1.273,2.874,2.508,5.291a124.09,124.09,0,0,0,8.98,14.821c.606.859,1.265,1.744,2.053,2.753l13.271-15.352Z" transform="translate(9.505 5.121)"/>
      <path id="Path_9299" data-name="Path 9299" class="cls-7" d="M332.2,136.567s10.36,41.451,14.145,72.68S359.282,332.9,359.282,332.9s28.39-8.2,43.216-18.927S422.057,296,422.057,296s-24.29-106.307-24.29-107.884,2.523-17.35,2.523-17.35,42.9-20.189,59.306-32.492,12.3-18.926,4.416-22.082-32.491.316-46.056,4.1-20.5,6.309-20.5,6.309-15.142-1.262-29.022,1.893-36.227,8.075-36.227,8.075" transform="translate(10.79 3.734)"/>
      <path id="Path_9300" data-name="Path 9300" class="cls-5" d="M454.345,114.458c4.437,0,7.751.426,9.852,1.266a15.532,15.532,0,0,1,4.779,2.841,7.075,7.075,0,0,1,2.38,4.3c.275,2.081-.467,4.4-2.2,6.9a41.994,41.994,0,0,1-9.256,8.9,165.156,165.156,0,0,1-16.239,10.3c-5.606,3.209-12.212,6.776-19.637,10.6-11.6,5.977-21.621,10.743-23.278,11.527-.878,5.5-2.467,15.756-2.475,17,.167,1.941,15.948,71.327,24.277,107.783a.5.5,0,0,1-.069.384,39.1,39.1,0,0,1-4.278,5.042,114.882,114.882,0,0,1-15.406,13.07,86.463,86.463,0,0,1-13.084,7.528c-4.212,2.021-8.99,4.046-14.2,6.02-8.867,3.359-16.016,5.434-16.087,5.454a.5.5,0,0,1-.636-.431c-.091-.924-9.192-92.779-12.933-123.646-1.078-8.893-3.425-24.44-8.484-48-3.026-14.1-5.624-24.513-5.65-24.617a.5.5,0,0,1,.378-.61c.223-.049,22.5-4.957,36.223-8.074a101.344,101.344,0,0,1,21.6-2.154h0c4.031,0,6.883.2,7.465.242.915-.327,7.888-2.781,20.438-6.284A157.128,157.128,0,0,1,435.7,116.1,129.024,129.024,0,0,1,454.345,114.458ZM421.52,295.894c-.59-2.583-6.379-27.928-12.1-53.138-12.157-53.6-12.157-54.386-12.157-54.644,0-1.6,2.426-16.783,2.53-17.429a.5.5,0,0,1,.281-.373c.107-.05,10.866-5.12,23.488-11.626,11.639-6,27.285-14.48,35.73-20.814a41.048,41.048,0,0,0,9.035-8.672c1.591-2.289,2.276-4.376,2.034-6.2a6.1,6.1,0,0,0-2.066-3.7,14.552,14.552,0,0,0-4.473-2.647c-1.982-.793-5.172-1.195-9.481-1.195a128.023,128.023,0,0,0-18.5,1.629,156.1,156.1,0,0,0-17.756,3.684c-13.386,3.736-20.4,6.273-20.468,6.3a.5.5,0,0,1-.212.028c-.03,0-3.027-.247-7.492-.247h0a100.336,100.336,0,0,0-21.377,2.129c-12.575,2.858-32.339,7.218-35.729,7.965.552,2.239,2.878,11.779,5.533,24.146,2.8,13.027,6.542,31.945,8.5,48.1,3.583,29.562,12.078,115.027,12.875,123.066,1.867-.559,8.054-2.462,15.441-5.261,5.182-1.964,9.932-3.978,14.118-5.986a85.473,85.473,0,0,0,12.926-7.435,114.039,114.039,0,0,0,15.239-12.919A43.014,43.014,0,0,0,421.52,295.894Z" transform="translate(10.79 3.734)"/>
      <path id="Path_9301" data-name="Path 9301" class="cls-4" d="M353.357,238.607c-.5,1.572-1.047,3.26-1.649,5.11" transform="translate(11.424 7.75)"/>
      <path id="Path_9302" data-name="Path 9302" class="cls-5" d="M351.708,244.217a.5.5,0,0,1-.476-.655c.507-1.558,1.1-3.383,1.648-5.107a.5.5,0,0,1,.953.3c-.55,1.726-1.143,3.553-1.65,5.113A.5.5,0,0,1,351.708,244.217Z" transform="translate(11.424 7.75)"/>
      <path id="Path_9303" data-name="Path 9303" class="cls-5" d="M354.58,237.082a.5.5,0,0,1-.479-.644,126.831,126.831,0,0,0,4.589-21.811c2.035-14.753,3.575-37.806,3.762-40.677l-4.6-2.925a.5.5,0,1,1,.537-.844l4.845,3.084a.5.5,0,0,1,.231.453c-.016.252-1.621,25.333-3.789,41.045a127.706,127.706,0,0,1-4.622,21.962A.5.5,0,0,1,354.58,237.082Z" transform="translate(11.517 5.541)"/>
      <path id="Path_9304" data-name="Path 9304" class="cls-5" d="M355.676,170.386a.5.5,0,0,1-.268-.078l-2.957-1.882a.5.5,0,0,1-.172-.658c1.878-3.506,4.673-9.193,4.673-10.489,0-.31-.554-2.337-7.677-15.427a.5.5,0,1,1,.878-.478c7.8,14.331,7.8,15.516,7.8,15.9,0,.321,0,1.3-2.416,6.29-.876,1.81-1.76,3.507-2.158,4.261l2.567,1.634a.5.5,0,0,1-.269.922Z" transform="translate(11.359 4.6)"/>
      <path id="Path_9305" data-name="Path 9305" class="cls-4" d="M346.814,136.344s.5.9,1.29,2.328" transform="translate(11.265 4.428)"/>
      <path id="Path_9306" data-name="Path 9306" class="cls-5" d="M348.1,139.172a.5.5,0,0,1-.438-.259c-.777-1.411-1.283-2.316-1.288-2.325a.5.5,0,0,1,.873-.488c.005.009.513.917,1.291,2.331a.5.5,0,0,1-.438.741Z" transform="translate(11.265 4.428)"/>
      <path id="Path_9307" data-name="Path 9307" class="cls-5" d="M372.859,293.955a.5.5,0,0,1-.48-.36l-2.208-7.571a.5.5,0,0,1,.3-.608c.025-.009,2.7-1.013,17.347-6.623a77.828,77.828,0,0,0,16.021-8.272.5.5,0,0,1,.569.823,77.3,77.3,0,0,1-16.232,8.384c-11.639,4.457-15.719,6.007-16.919,6.462l1.951,6.689a103.647,103.647,0,0,0,13.926-3.959A79.325,79.325,0,0,0,399.5,283.3a42.59,42.59,0,0,0,10.837-8.474.5.5,0,0,1,.749.662,43.585,43.585,0,0,1-11.1,8.684,80.358,80.358,0,0,1-12.529,5.69,102.091,102.091,0,0,1-14.512,4.083A.5.5,0,0,1,372.859,293.955Z" transform="translate(12.039 8.8)"/>
      <path id="Path_9308" data-name="Path 9308" class="cls-4" d="M408.3,266.776a25.542,25.542,0,0,1-2.119,1.889" transform="translate(13.193 8.665)"/>
      <path id="Path_9309" data-name="Path 9309" class="cls-5" d="M406.179,269.165a.5.5,0,0,1-.317-.887,25.511,25.511,0,0,0,2.073-1.848.5.5,0,0,1,.723.691,25.857,25.857,0,0,1-2.164,1.932A.5.5,0,0,1,406.179,269.165Z" transform="translate(13.193 8.665)"/>
      <path id="Path_9310" data-name="Path 9310" class="cls-5" d="M398.148,170.132a.5.5,0,0,1-.473-.66l5.656-16.751a.5.5,0,0,1,.947.32L399.835,166.2l11.147-16.72a.5.5,0,1,1,.832.555l-13.249,19.873A.5.5,0,0,1,398.148,170.132Z" transform="translate(12.932 4.864)"/>
      <line id="Line_64" data-name="Line 64" class="cls-4" x1="1.307" y2="3.871" transform="translate(417.975 150.207)"/>
      <path id="Line_65" data-name="Line 65" class="cls-5" d="M0,4.371a.5.5,0,0,1-.16-.026.5.5,0,0,1-.314-.634L.833-.16a.5.5,0,0,1,.634-.314A.5.5,0,0,1,1.781.16L.474,4.031A.5.5,0,0,1,0,4.371Z" transform="translate(417.975 150.207)"/>
      <path id="Path_9311" data-name="Path 9311" class="cls-7" d="M295.882,153.026s3.154,57.412,6.624,85.487,9.148,97.474,9.148,97.474-11.04-.946-18.3-9.779a101.464,101.464,0,0,1-10.725-15.457v-62.46c0-2.523-5.048-31.229-9.78-45.425s-11.671-30.6-7.57-37.538,17.034-17.35,21.766-18.613,8.517,0,8.833,6.309" transform="translate(8.576 4.751)"/>
      <path id="Path_9312" data-name="Path 9312" class="cls-5" d="M290.067,145.777c2.715,0,6.015,1.253,6.314,7.224.031.572,3.193,57.714,6.621,85.451,3.432,27.764,9.093,96.8,9.15,97.495a.5.5,0,0,1-.541.539,27.891,27.891,0,0,1-6.556-1.606,30.24,30.24,0,0,1-6.049-3,26.228,26.228,0,0,1-6.034-5.357,103.094,103.094,0,0,1-10.782-15.543.5.5,0,0,1-.057-.232v-62.46c0-1.132-1.181-8.617-3.106-18.237-1.323-6.615-3.946-18.924-6.648-27.03-.74-2.219-1.549-4.537-2.332-6.778a170.119,170.119,0,0,1-5.544-17.856,34.661,34.661,0,0,1-.966-7.521,11.281,11.281,0,0,1,1.315-5.8c1.907-3.227,5.827-7.442,10.756-11.564,4.612-3.857,8.946-6.646,11.311-7.277A12.347,12.347,0,0,1,290.067,145.777Zm21.038,189.639c-.571-6.936-5.839-70.5-9.1-96.841-3.433-27.771-6.6-84.947-6.627-85.521a7.527,7.527,0,0,0-1.648-4.893,4.827,4.827,0,0,0-3.667-1.384,11.356,11.356,0,0,0-2.889.423c-2.2.587-6.489,3.365-10.927,7.078-4.774,3.993-8.713,8.219-10.537,11.306-3.341,5.653,1.041,18.2,5.278,30.334.784,2.245,1.594,4.566,2.336,6.792,2.719,8.157,5.352,20.511,6.68,27.15,1.842,9.208,3.125,17.1,3.125,18.433v62.334a103.988,103.988,0,0,0,10.612,15.265,25.229,25.229,0,0,0,5.8,5.152,30.053,30.053,0,0,0,11.556,4.372Z" transform="translate(8.576 4.751)"/>
      <path id="Path_9313" data-name="Path 9313" class="cls-4" d="M293.165,222.651c1.783,5.573,3.515,10.523,4.925,13.7" transform="translate(9.522 7.232)"/>
      <path id="Path_9314" data-name="Path 9314" class="cls-5" d="M298.09,236.848a.5.5,0,0,1-.457-.3c-1.294-2.911-2.957-7.537-4.944-13.748a.5.5,0,0,1,.952-.3c1.976,6.177,3.627,10.768,4.906,13.646a.5.5,0,0,1-.457.7Z" transform="translate(9.522 7.232)"/>
      <path id="Path_9315" data-name="Path 9315" class="cls-5" d="M292.3,221.2a.5.5,0,0,1-.478-.352c-4.13-13.355-8.359-29.178-9.009-31.989-.422-1.83.38-4.487,2.383-7.9a43.165,43.165,0,0,1,2.783-4.137c-1.179-1.035-4.9-4.312-5.978-5.389-.277-.277-.426-.849-.31-2.839.074-1.273.258-3.042.545-5.257a.5.5,0,0,1,.992.129c-.269,2.072-.446,3.747-.526,4.979a7.207,7.207,0,0,0,.034,2.31c1.282,1.273,6.206,5.583,6.256,5.626a.5.5,0,0,1,.061.689,42.077,42.077,0,0,0-3,4.407c-1.839,3.133-2.622,5.608-2.265,7.156.647,2.8,4.867,18.586,8.99,31.919a.5.5,0,0,1-.478.648Z" transform="translate(9.165 5.307)"/>
      <path id="Path_9316" data-name="Path 9316" class="cls-4" d="M286.109,143.037s-1.664,9.041-2.842,16.984" transform="translate(9.201 4.646)"/>
      <path id="Path_9317" data-name="Path 9317" class="cls-5" d="M283.268,160.521a.505.505,0,0,1-.074-.005.5.5,0,0,1-.421-.568c1.166-7.861,2.829-16.911,2.845-17a.5.5,0,1,1,.983.181c-.017.09-1.676,9.124-2.84,16.967A.5.5,0,0,1,283.268,160.521Z" transform="translate(9.201 4.646)"/>
      <line id="Line_66" data-name="Line 66" class="cls-4" x1="5.579" y1="2.618" transform="translate(293.417 290.898)"/>
      <path id="Line_67" data-name="Line 67" class="cls-5" d="M5.578,3.118a.5.5,0,0,1-.212-.048L-.212.453a.5.5,0,0,1-.24-.665.5.5,0,0,1,.665-.24L5.791,2.166a.5.5,0,0,1-.213.953Z" transform="translate(293.417 290.898)"/>
      <path id="Path_9318" data-name="Path 9318" class="cls-5" d="M299.644,289.77a.5.5,0,0,1-.212-.047L292.36,286.4a.5.5,0,1,1,.425-.905l6.359,2.984v-8.341L284,273.961a.5.5,0,0,1,.378-.926l15.457,6.308a.5.5,0,0,1,.311.463v9.464a.5.5,0,0,1-.5.5Z" transform="translate(9.23 8.883)"/>
      <path id="Path_9319" data-name="Path 9319" class="cls-4" d="M272.275,117.717l5.392,13.212s-7.009-7.279-8.626-.809,3.235,14.019,6.47,14.019,7.01.269,7.01.269,11.323,19.951,18.333,23.724,16.445,7.01,22.376,3.775,9.166-12.132,11.054-18.872.539-26.96.539-26.96l-9.705-39.9s6.74-2.426,6.74-7.01-15.637-5.932-15.637-5.932,6.2-7.279-1.617-8.357S281.442,78.9,280.633,79.436,284.946,70,278.476,73.5s-14.019,20.76-13.211,24.8,7.009,19.41,7.009,19.41" transform="translate(8.614 2.105)"/>
      <path id="Path_9320" data-name="Path 9320" class="cls-5" d="M313.732,64.323a6.906,6.906,0,0,1,.938.06c2.246.31,3.648,1.155,4.165,2.513.786,2.063-.779,4.679-1.675,5.933a63.593,63.593,0,0,1,6.99,1.166,23.7,23.7,0,0,1,5.495,1.869c1.8.946,2.711,2.057,2.711,3.3,0,2.044-1.239,3.992-3.583,5.633A16.883,16.883,0,0,1,325.7,86.48l9.6,39.476a.5.5,0,0,1,.013.085c0,.051.339,5.135.439,10.977.135,7.875-.2,13.309-1,16.151a57.876,57.876,0,0,1-4.047,10.844c-2.078,4.038-4.517,6.842-7.249,8.332a12.611,12.611,0,0,1-6.094,1.388c-6.242,0-13.179-3.234-16.758-5.161-2.978-1.6-7.006-6.124-11.971-13.437-3.225-4.75-5.818-9.195-6.425-10.247-.913-.06-4.017-.25-6.709-.25-1.279,0-2.78-.984-4.119-2.7a15.618,15.618,0,0,1-2.658-5.41,13.022,13.022,0,0,1-.177-6.531c.349-1.4,1.178-3.058,3.148-3.058,1.6,0,3.41,1.159,4.681,2.17l-4.572-11.2c-.255-.631-6.229-15.457-7.037-19.5-.268-1.343.3-3.642.826-5.335a54.02,54.02,0,0,1,3.092-7.588,50.433,50.433,0,0,1,4.473-7.49,16.964,16.964,0,0,1,5.072-4.929,5.435,5.435,0,0,1,2.426-.808h0a1.483,1.483,0,0,1,1.271.6c.782,1.081.174,3.21-.576,5.483l-.031.094c2.034-1.208,6.988-4.068,12.671-6.943C303.4,66.733,310.039,64.323,313.732,64.323Zm20.592,61.828-9.7-39.857a.5.5,0,0,1,.316-.589c.064-.023,6.409-2.363,6.409-6.539,0-1.591-2.639-3.082-7.432-4.2a63.267,63.267,0,0,0-7.748-1.236.5.5,0,0,1-.338-.822,13.141,13.141,0,0,0,1.382-2.066c.546-1.022,1.107-2.476.68-3.594-.378-.99-1.511-1.622-3.367-1.878a5.908,5.908,0,0,0-.8-.05c-3.486,0-10.153,2.44-19.281,7.058-7.219,3.651-13.227,7.263-13.541,7.472a.589.589,0,0,1-.329.105.532.532,0,0,1-.43-.22c-.21-.291-.111-.592.259-1.714a23.319,23.319,0,0,0,.76-2.675c.247-1.265.078-1.739-.045-1.909a.5.5,0,0,0-.461-.184h0a4.47,4.47,0,0,0-1.95.687c-2.744,1.487-6.155,5.966-9.125,11.982a53,53,0,0,0-3.033,7.442,12.061,12.061,0,0,0-.8,4.843c.79,3.952,6.921,19.167,6.983,19.32l5.391,13.21a.5.5,0,0,1-.823.536c-.032-.033-3.244-3.336-5.6-3.336-1.6,0-2.035,1.732-2.177,2.3-1.005,4.021.608,8.464,2.653,11.084,1.131,1.449,2.377,2.314,3.331,2.314,3.216,0,7.007.268,7.045.271a.5.5,0,0,1,.4.252c.113.2,11.332,19.868,18.135,23.531,3.5,1.883,10.261,5.042,16.284,5.042a11.63,11.63,0,0,0,5.615-1.266c2.553-1.393,4.853-4.054,6.838-7.912A56.915,56.915,0,0,0,333.8,152.9C335.6,146.465,334.392,127.194,334.325,126.151Z" transform="translate(8.614 2.105)"/>
      <path id="Path_9321" data-name="Path 9321" class="cls-8" d="M316.22,73.235s6.2-7.279-1.619-8.358S281.441,78.9,280.632,79.436,284.947,70,278.476,73.5s-14.02,20.759-13.211,24.8,7.009,19.412,7.009,19.412l5.392,13.21s6.2,5.661,4.044,1.348-6.471-14.019-5.393-15.367,6.471-3.5,6.74-6.471-5.122-11.592-3.5-13.749,24.534,1.887,28.577-.539-1.079-8.358-1.079-8.358l18.063-1.618s6.74-2.426,6.74-7.01-15.636-5.931-15.636-5.931" transform="translate(8.614 2.105)"/>
      <path id="Path_9322" data-name="Path 9322" class="cls-5" d="M313.732,64.322h0a6.911,6.911,0,0,1,.937.06c2.247.31,3.648,1.156,4.166,2.514.786,2.063-.778,4.679-1.673,5.933a63.6,63.6,0,0,1,6.989,1.166,23.7,23.7,0,0,1,5.494,1.868c1.8.946,2.71,2.057,2.71,3.3,0,2.044-1.239,3.992-3.583,5.633a16.512,16.512,0,0,1-3.487,1.847.5.5,0,0,1-.125.028l-17.147,1.536c.9,1.224,2.469,3.734,2.123,5.892a3.453,3.453,0,0,1-1.748,2.479c-1,.6-2.939.876-6.117.876-3.016,0-6.677-.251-10.218-.493-3.239-.222-6.3-.431-8.6-.431a17.243,17.243,0,0,0-2.517.14c-.834.129-.979.31-.984.318-.211.281-.364.973.1,2.676a45.293,45.293,0,0,0,1.649,4.513c1.016,2.518,1.976,4.9,1.848,6.3-.2,2.244-2.792,3.925-4.871,5.275a10.566,10.566,0,0,0-1.976,1.463c-.021.028-.5.775,1.574,6.117,1.229,3.169,2.856,6.675,3.876,8.715.516,1.031.628,1.611.387,2a.744.744,0,0,1-.652.344c-.365,0-1.012-.181-2.79-1.593-.937-.744-1.74-1.476-1.774-1.507a.5.5,0,0,1-.126-.18l-5.392-13.21c-.255-.631-6.229-15.459-7.037-19.5-.269-1.343.3-3.642.825-5.334a54,54,0,0,1,3.091-7.588,50.419,50.419,0,0,1,4.474-7.49,16.959,16.959,0,0,1,5.072-4.928,5.436,5.436,0,0,1,2.427-.808,1.483,1.483,0,0,1,1.272.6c.782,1.082.173,3.212-.578,5.486l-.03.089c2.033-1.207,6.976-4.063,12.67-6.943C303.4,66.732,310.038,64.322,313.732,64.322ZM325,85.683c.637-.245,6.352-2.554,6.352-6.518,0-1.59-2.636-3.079-7.422-4.195a63.325,63.325,0,0,0-7.757-1.238.5.5,0,0,1-.338-.822,13.136,13.136,0,0,0,1.382-2.066c.546-1.022,1.106-2.476.679-3.594-.378-.99-1.511-1.623-3.368-1.879a5.913,5.913,0,0,0-.8-.05c-3.486,0-10.153,2.44-19.281,7.057-7.1,3.593-13.243,7.273-13.541,7.472a.588.588,0,0,1-.33.105.532.532,0,0,1-.43-.22c-.21-.29-.111-.591.259-1.711a23.317,23.317,0,0,0,.761-2.676c.248-1.266.079-1.74-.044-1.91a.5.5,0,0,0-.461-.184,4.471,4.471,0,0,0-1.95.688c-2.745,1.487-6.156,5.966-9.125,11.981a52.971,52.971,0,0,0-3.033,7.441,12.053,12.053,0,0,0-.8,4.842c.79,3.953,6.921,19.169,6.983,19.323l5.348,13.1c.228.2.9.8,1.636,1.385a10.451,10.451,0,0,0,1.882,1.28,5.727,5.727,0,0,0-.341-.8c-1.035-2.071-2.686-5.628-3.928-8.839a36.793,36.793,0,0,1-1.418-4.27c-.361-1.472-.358-2.334.01-2.795a10.293,10.293,0,0,1,2.213-1.677c1.8-1.167,4.26-2.766,4.42-4.526.106-1.167-.853-3.543-1.78-5.84-1.394-3.454-2.711-6.717-1.626-8.163.457-.61,1.7-.858,4.3-.858,2.333,0,5.41.21,8.666.433,3.524.241,7.168.491,10.15.491,2.907,0,4.791-.247,5.6-.733a2.465,2.465,0,0,0,1.275-1.779c.4-2.465-2.446-5.79-2.475-5.823a.5.5,0,0,1,.334-.825Z" transform="translate(8.614 2.105)"/>
      <path id="Path_9323" data-name="Path 9323" class="cls-4" d="M318.2,137.465s-2.426,4.583-6.2,4.853" transform="translate(10.134 4.465)"/>
      <path id="Path_9324" data-name="Path 9324" class="cls-5" d="M312,142.818a.5.5,0,0,1-.035-1c3.449-.246,5.772-4.545,5.795-4.588a.5.5,0,0,1,.884.468c-.1.2-2.6,4.832-6.607,5.117Z" transform="translate(10.134 4.465)"/>
      <path id="Path_9325" data-name="Path 9325" class="cls-5" d="M301.964,125.521c.753,1.621.432,3.366-.717,3.9s-2.689-.349-3.44-1.97-.432-3.367.717-3.9,2.688.349,3.44,1.97" transform="translate(9.66 4.008)"/>
      <path id="Path_9326" data-name="Path 9326" class="cls-5" d="M322.77,121.429c.281,1.765-.5,3.357-1.754,3.555s-2.49-1.07-2.772-2.834.5-3.356,1.754-3.555,2.491,1.07,2.772,2.834" transform="translate(10.335 3.851)"/>
      <path id="Path_9327" data-name="Path 9327" class="cls-4" d="M312,152.163s4.583,0,7.818-2.426" transform="translate(10.134 4.863)"/>
      <path id="Path_9328" data-name="Path 9328" class="cls-5" d="M312,152.663a.5.5,0,0,1,0-1h0c.044,0,4.46-.032,7.518-2.326a.5.5,0,1,1,.6.8A15.119,15.119,0,0,1,312,152.663Z" transform="translate(10.134 4.863)"/>
      <path id="Path_9329" data-name="Path 9329" class="cls-5" d="M288.763,123.159a1,1,0,0,1-.818-1.574,8.678,8.678,0,0,1,3.6-2.639,12.924,12.924,0,0,1,4.7-.972,20.94,20.94,0,0,1,6.842,1.074,1,1,0,0,1-.6,1.907c-9.435-2.979-12.865,1.729-12.9,1.777A1,1,0,0,1,288.763,123.159Z" transform="translate(9.379 3.864)"/>
      <path id="Path_9330" data-name="Path 9330" class="cls-5" d="M315.138,118.312a1,1,0,0,1-.957-1.293,10.866,10.866,0,0,1,2.05-3.526,11.313,11.313,0,0,1,8-3.92,1,1,0,1,1,.148,1.995,9.282,9.282,0,0,0-6.573,3.163,9.057,9.057,0,0,0-1.711,2.874A1,1,0,0,1,315.138,118.312Z" transform="translate(10.236 3.591)"/>
      <path id="Path_9331" data-name="Path 9331" class="cls-4" d="M329.759,111.955s1.887-4.314,4.044-1.618,2.965,8.088,1.617,11.593-2.156,6.471-2.156,6.471l-.54-3.775Z" transform="translate(10.711 3.555)"/>
      <path id="Path_9332" data-name="Path 9332" class="cls-5" d="M332.33,108.951a2.423,2.423,0,0,1,1.863,1.074,12.208,12.208,0,0,1,2.227,5.735,12.983,12.983,0,0,1-.534,6.35c-1.322,3.439-2.132,6.393-2.14,6.423a.5.5,0,0,1-.977-.061l-.537-3.753-2.96-12.649a.5.5,0,0,1,.029-.314C329.427,111.467,330.578,108.951,332.33,108.951Zm1.108,17.134c.37-1.166.886-2.7,1.515-4.334a12.15,12.15,0,0,0,.478-5.849,11.2,11.2,0,0,0-2.018-5.251,1.506,1.506,0,0,0-1.082-.7c-.867,0-1.723,1.4-2.045,2.058l2.926,12.5q0,.021.008.043Z" transform="translate(10.711 3.555)"/>
      <path id="Path_9333" data-name="Path 9333" class="cls-4" d="M380.51,91.679s-29.655-5.392-31.542-5.392-23.994,4.043-27.23,5.392-27.768,8.357-27.229,9.975,3.5,2.157,3.5,2.157.54,2.426,9.166,3.505,28.846-1.618,29.116.269a4.712,4.712,0,0,1-1.347,3.5l2.426,4.314s8.9-1.348,11.862-3.505S360.56,103,360.56,103l18.062,1.347Z" transform="translate(9.565 2.803)"/>
      <path id="Path_9334" data-name="Path 9334" class="cls-5" d="M348.967,85.787c1.91,0,30.419,5.179,31.632,5.4a.5.5,0,0,1,.405.566l-1.887,12.671a.5.5,0,0,1-.532.425l-17.865-1.333c-1.156.931-8.47,6.81-11.189,8.787-3.029,2.2-11.713,3.539-12.081,3.6a.5.5,0,0,1-.511-.249l-2.426-4.314a.5.5,0,0,1,.082-.6,4.3,4.3,0,0,0,1.216-3,2.985,2.985,0,0,0-1.03-.236,23.383,23.383,0,0,0-2.569-.108c-2.239,0-5.231.149-8.4.306-3.761.187-7.65.38-11.107.38a46.407,46.407,0,0,1-5.587-.268c-3.648-.456-6.346-1.206-8.017-2.227a3.921,3.921,0,0,1-1.44-1.339,9.13,9.13,0,0,1-1.39-.446,3.6,3.6,0,0,1-2.236-1.989.7.7,0,0,1,.051-.553c.274-.538,1.37-1.332,7.484-3.483,3.9-1.371,8.756-2.91,12.66-4.146,3.419-1.083,6.371-2.018,7.316-2.412,2.049-.854,10.626-2.544,14.219-3.231C341.417,86.905,347.9,85.787,348.967,85.787Zm30.976,6.3c-10.365-1.882-29.541-5.3-30.976-5.3-.872,0-6.832,1-13.015,2.181-7.418,1.419-12.66,2.6-14.022,3.172-.986.411-3.816,1.307-7.4,2.442-3.858,1.222-8.66,2.743-12.523,4.1-2.082.731-3.732,1.359-4.9,1.866a8.426,8.426,0,0,0-2.061,1.094c.486,1,2.35,1.548,3.06,1.677a.443.443,0,0,1,.4.371c.07.165,1.082,2.172,8.742,3.13a45.464,45.464,0,0,0,5.463.26c3.433,0,7.309-.192,11.058-.379,3.181-.158,6.185-.307,8.449-.307,3.263,0,4.461.293,4.579,1.12a4.927,4.927,0,0,1-1.232,3.641l2.081,3.7c1.645-.271,8.791-1.533,11.3-3.361,2.921-2.124,11.22-8.813,11.3-8.881a.5.5,0,0,1,.351-.109l17.6,1.313Z" transform="translate(9.565 2.803)"/>
      <path id="Path_9335" data-name="Path 9335" class="cls-4" d="M314.545,95.165s-12.132,5.122-14.019,6.2,3.505,3.235,6.74,2.7S322.9,98.67,324.79,98.13s10.515,1.618,16.715,2.426A20.624,20.624,0,0,0,353.1,98.94" transform="translate(9.748 3.091)"/>
      <path id="Path_9336" data-name="Path 9336" class="cls-5" d="M306.161,104.645a12.237,12.237,0,0,1-3.431-.534c-.795-.239-2.682-.9-3.035-1.894a1.03,1.03,0,0,1,.583-1.286c1.891-1.081,13.576-6.018,14.072-6.228a.5.5,0,1,1,.389.921c-.121.051-12.125,5.123-13.965,6.175a.55.55,0,0,0-.132.1c.076.18.692.734,2.281,1.228a9.9,9.9,0,0,0,4.261.444c2.135-.356,8.627-2.733,12.923-4.305,2.186-.8,3.913-1.433,4.545-1.614,1.215-.347,4.31.2,9.259,1.119,2.6.484,5.295.984,7.658,1.292a20.058,20.058,0,0,0,11.3-1.568.5.5,0,0,1,.447.894,21.094,21.094,0,0,1-11.881,1.665c-2.39-.312-5.1-.814-7.712-1.3-3.81-.708-7.75-1.441-8.8-1.141-.6.171-2.309.8-4.476,1.591-4.59,1.68-10.875,3.982-13.1,4.353A7.284,7.284,0,0,1,306.161,104.645Z" transform="translate(9.748 3.091)"/>
      <path id="Path_9337" data-name="Path 9337" class="cls-7" d="M451.16,134.749a48.339,48.339,0,0,1-20.82,0c-11.356-2.523-41.324-17.35-41.324-17.35l-20.5-5.994,4.732-23.974s51.733,6.308,66.244,11.671,35.646,17.666,35.016,22.082-12.3,13.88-12.3,13.88" transform="translate(11.969 2.84)"/>
      <path id="Path_9338" data-name="Path 9338" class="cls-5" d="M440.818,136.367a49.072,49.072,0,0,1-10.586-1.131c-4.743-1.054-13.16-4.3-25.018-9.654-8.487-3.831-15.778-7.42-16.38-7.717l-20.462-5.981a.5.5,0,0,1-.35-.577l4.732-23.974a.5.5,0,0,1,.551-.4c.129.016,13.109,1.6,27.7,3.827,19.6,2.988,32.612,5.636,38.661,7.872a143.524,143.524,0,0,1,23.274,11.438,66.494,66.494,0,0,1,8.734,6.177c2.419,2.121,3.508,3.758,3.33,5.006-.278,1.944-2.476,4.933-6.534,8.884-2.978,2.9-5.919,5.29-5.948,5.314a.5.5,0,0,1-.63-.777c.029-.024,2.939-2.389,5.886-5.258,2.676-2.606,5.931-6.163,6.236-8.3.2-1.373-2.747-4.77-11.6-10.189a142.445,142.445,0,0,0-23.1-11.353c-7.456-2.756-25.032-5.774-38.463-7.821-13.026-1.985-24.77-3.463-27.207-3.766l-4.553,23.069,20.065,5.865a.5.5,0,0,1,.081.032c.3.148,30.043,14.828,41.211,17.31a48.916,48.916,0,0,0,14.519.936,38.676,38.676,0,0,0,6.064-.931.5.5,0,1,1,.258.966,38.979,38.979,0,0,1-6.239.961C443.848,136.293,442.418,136.367,440.818,136.367Z" transform="translate(11.969 2.84)"/>
      <path id="Path_9339" data-name="Path 9339" class="cls-5" d="M304.417,250.777a21.811,21.811,0,0,1-5.3-.686,37.127,37.127,0,0,1-11.437-5.374,66.253,66.253,0,0,1-11.591-10.047.5.5,0,0,1,.753-.658,65.177,65.177,0,0,0,11.412,9.885,36.109,36.109,0,0,0,11.116,5.226,17.676,17.676,0,0,0,11.886-.8c3.553-1.623,7.007-5.438,10.265-11.339a101.18,101.18,0,0,0,7.434-18.189,206.01,206.01,0,0,0,5.94-24.278.5.5,0,1,1,.986.166,207.156,207.156,0,0,1-5.973,24.412,102.155,102.155,0,0,1-7.513,18.372c-3.364,6.092-6.972,10.051-10.725,11.765A17.269,17.269,0,0,1,304.417,250.777Z" transform="translate(8.98 6.321)"/>
      <path id="Path_9340" data-name="Path 9340" class="cls-5" d="M284.664,235.428a33.715,33.715,0,0,1-11.4-2.054,46.175,46.175,0,0,1-11.217-5.993,55.937,55.937,0,0,1-10.11-9.264.5.5,0,0,1,.781-.625h0a54.905,54.905,0,0,0,9.933,9.091,45.15,45.15,0,0,0,10.965,5.854,31.962,31.962,0,0,0,13.665,1.874,23.608,23.608,0,0,0,12.336-4.724,30.419,30.419,0,0,0,8.083-9.58,45.583,45.583,0,0,0,4.387-11.425,42.007,42.007,0,0,0,1.234-10.147.5.5,0,1,1,1-.017,43.029,43.029,0,0,1-1.262,10.4,46.6,46.6,0,0,1-4.486,11.679,31.409,31.409,0,0,1-8.353,9.89,24.594,24.594,0,0,1-12.85,4.922Q286.025,235.428,284.664,235.428Z" transform="translate(8.196 6.445)"/>
      <rect id="Rectangle_16862" data-name="Rectangle 16862" class="cls-9" width="31.366" height="6.689" transform="translate(252.88 240.091) rotate(-71.431)"/>
      <path id="Rectangle_16863" data-name="Rectangle 16863" class="cls-5" d="M0-.5H31.366a.5.5,0,0,1,.5.5V6.689a.5.5,0,0,1-.5.5H0a.5.5,0,0,1-.5-.5V0A.5.5,0,0,1,0-.5ZM30.866.5H.5V6.189H30.866Z" transform="translate(252.88 240.091) rotate(-71.431)"/>
      <rect id="Rectangle_16864" data-name="Rectangle 16864" class="cls-5" width="4.613" height="10.378" transform="translate(260.753 210.865) rotate(-71.43)"/>
      <path id="Rectangle_16865" data-name="Rectangle 16865" class="cls-5" d="M0-.5H4.613a.5.5,0,0,1,.5.5V10.378a.5.5,0,0,1-.5.5H0a.5.5,0,0,1-.5-.5V0A.5.5,0,0,1,0-.5ZM4.113.5H.5V9.878H4.113Z" transform="translate(260.753 210.865) rotate(-71.43)"/>
      <rect id="Rectangle_16866" data-name="Rectangle 16866" class="cls-9" width="31.366" height="6.689" transform="matrix(0.318, -0.948, 0.948, 0.318, 266.871, 244.792)"/>
      <path id="Rectangle_16867" data-name="Rectangle 16867" class="cls-5" d="M0-.5H31.366a.5.5,0,0,1,.5.5V6.689a.5.5,0,0,1-.5.5H0a.5.5,0,0,1-.5-.5V0A.5.5,0,0,1,0-.5ZM30.866.5H.5V6.189H30.866Z" transform="matrix(0.318, -0.948, 0.948, 0.318, 266.871, 244.792)"/>
      <rect id="Rectangle_16868" data-name="Rectangle 16868" class="cls-5" width="4.613" height="10.378" transform="matrix(0.318, -0.948, 0.948, 0.318, 274.744, 215.565)"/>
      <path id="Rectangle_16869" data-name="Rectangle 16869" class="cls-5" d="M0-.5H4.613a.5.5,0,0,1,.5.5V10.378a.5.5,0,0,1-.5.5H0a.5.5,0,0,1-.5-.5V0A.5.5,0,0,1,0-.5ZM4.113.5H.5V9.878H4.113Z" transform="matrix(0.318, -0.948, 0.948, 0.318, 274.744, 215.565)"/>
      <rect id="Rectangle_16870" data-name="Rectangle 16870" class="cls-5" width="23.985" height="21.679" transform="translate(252.661 240.018) rotate(-71.43)"/>
      <path id="Rectangle_16871" data-name="Rectangle 16871" class="cls-5" d="M0-.5H23.985a.5.5,0,0,1,.5.5V21.679a.5.5,0,0,1-.5.5H0a.5.5,0,0,1-.5-.5V0A.5.5,0,0,1,0-.5ZM23.485.5H.5V21.179H23.485Z" transform="translate(252.661 240.018) rotate(-71.43)"/>
      <path id="Path_9341" data-name="Path 9341" class="cls-9" d="M247.018,247.908l-19.171-6.441,10.164-16.779,11.036,3.708Z" transform="translate(7.401 7.298)"/>
      <path id="Path_9342" data-name="Path 9342" class="cls-5" d="M247.018,248.408a.5.5,0,0,1-.159-.026l-19.171-6.441a.5.5,0,0,1-.268-.733l10.164-16.779a.5.5,0,0,1,.587-.215l11.036,3.708a.5.5,0,0,1,.338.526l-2.029,19.512a.5.5,0,0,1-.5.448Zm-18.42-7.216,17.987,6.043,1.923-18.492-10.277-3.453Z" transform="translate(7.401 7.298)"/>
      <rect id="Rectangle_16872" data-name="Rectangle 16872" class="cls-10" width="21.462" height="20.224" transform="translate(228.412 269.11) rotate(-71.43)"/>
      <path id="Rectangle_16873" data-name="Rectangle 16873" class="cls-5" d="M0-.5H21.462a.5.5,0,0,1,.5.5V20.224a.5.5,0,0,1-.5.5H0a.5.5,0,0,1-.5-.5V0A.5.5,0,0,1,0-.5ZM20.962.5H.5V19.724H20.962Z" transform="translate(228.412 269.11) rotate(-71.43)"/>
      <rect id="Rectangle_16874" data-name="Rectangle 16874" class="cls-10" width="21.462" height="17.366" transform="translate(242.62 231.306) rotate(-71.428)"/>
      <path id="Rectangle_16875" data-name="Rectangle 16875" class="cls-5" d="M0-.5H21.462a.5.5,0,0,1,.5.5V17.366a.5.5,0,0,1-.5.5H0a.5.5,0,0,1-.5-.5V0A.5.5,0,0,1,0-.5ZM20.962.5H.5V16.866H20.962Z" transform="translate(242.62 231.306) rotate(-71.428)"/>
      <path id="Path_9343" data-name="Path 9343" class="cls-9" d="M274.121,257.013l-19.171-6.441,10.164-16.779,11.036,3.708Z" transform="translate(8.281 7.594)"/>
      <path id="Path_9344" data-name="Path 9344" class="cls-5" d="M274.121,257.513a.5.5,0,0,1-.159-.026l-19.171-6.441a.5.5,0,0,1-.268-.733l10.164-16.779a.5.5,0,0,1,.587-.215l11.036,3.708a.5.5,0,0,1,.338.526l-2.029,19.512a.5.5,0,0,1-.5.448ZM255.7,250.3l17.987,6.043,1.923-18.492L265.333,234.4Z" transform="translate(8.281 7.594)"/>
      <rect id="Rectangle_16876" data-name="Rectangle 16876" class="cls-10" width="21.462" height="20.224" transform="translate(256.395 278.511) rotate(-71.43)"/>
      <path id="Rectangle_16877" data-name="Rectangle 16877" class="cls-5" d="M0-.5H21.462a.5.5,0,0,1,.5.5V20.224a.5.5,0,0,1-.5.5H0a.5.5,0,0,1-.5-.5V0A.5.5,0,0,1,0-.5ZM20.962.5H.5V19.724H20.962Z" transform="translate(256.395 278.511) rotate(-71.43)"/>
      <rect id="Rectangle_16878" data-name="Rectangle 16878" class="cls-10" width="21.462" height="17.366" transform="translate(270.604 240.709) rotate(-71.432)"/>
      <path id="Rectangle_16879" data-name="Rectangle 16879" class="cls-5" d="M0-.5H21.462a.5.5,0,0,1,.5.5V17.366a.5.5,0,0,1-.5.5H0a.5.5,0,0,1-.5-.5V0A.5.5,0,0,1,0-.5ZM20.962.5H.5V16.866H20.962Z" transform="translate(270.604 240.709) rotate(-71.432)"/>
      <path id="Path_9345" data-name="Path 9345" class="cls-4" d="M235.353,203.021s-2.234,3.68-1.577,4.731,7.1,4.6,8.016,4.862,3.416-1.051,3.285-2.76-5.125-5.387-6.7-6.307-2.365-1.051-3.022-.526" transform="translate(7.589 6.584)"/>
      <path id="Path_9346" data-name="Path 9346" class="cls-5" d="M236.209,202.213h0a5.085,5.085,0,0,1,2.419.9,32.692,32.692,0,0,1,3.966,2.91,18.06,18.06,0,0,1,1.984,1.928,3.575,3.575,0,0,1,1,1.863,2.609,2.609,0,0,1-.779,1.976,4.209,4.209,0,0,1-2.734,1.356,1.486,1.486,0,0,1-.408-.053,34.186,34.186,0,0,1-4.221-2.184c-2.371-1.379-3.744-2.353-4.082-2.894-.377-.6-.215-1.63.51-3.231a21.3,21.3,0,0,1,1.063-2.024.5.5,0,0,1,.115-.131A1.806,1.806,0,0,1,236.209,202.213Zm5.855,9.934a3.268,3.268,0,0,0,2-1.035,1.681,1.681,0,0,0,.516-1.22c-.017-.215-.256-1.075-2.636-3.107a31.56,31.56,0,0,0-3.821-2.807,4.447,4.447,0,0,0-1.915-.765h0a.789.789,0,0,0-.476.148,20.743,20.743,0,0,0-.962,1.845c-.828,1.831-.581,2.263-.57,2.28a17.16,17.16,0,0,0,3.737,2.56,34.624,34.624,0,0,0,3.992,2.086A.494.494,0,0,0,242.063,212.147Z" transform="translate(7.589 6.584)"/>
      <path id="Path_9347" data-name="Path 9347" class="cls-4" d="M231.889,210.073s-1.077,4.168-.145,4.985,8.123,2.355,9.079,2.342,2.967-1.993,2.349-3.591-6.462-3.679-8.237-4.1-2.569-.324-3.046.369" transform="translate(7.515 6.803)"/>
      <path id="Path_9348" data-name="Path 9348" class="cls-5" d="M233.251,208.95h0a7.92,7.92,0,0,1,1.8.268,32.716,32.716,0,0,1,4.637,1.641,18.055,18.055,0,0,1,2.456,1.274,3.572,3.572,0,0,1,1.494,1.5,2.83,2.83,0,0,1-.464,2.614,3.541,3.541,0,0,1-2.344,1.658h-.02a35.316,35.316,0,0,1-4.678-.88c-2.652-.634-4.239-1.167-4.717-1.586-.535-.469-.676-1.5-.444-3.241a21.309,21.309,0,0,1,.433-2.245.5.5,0,0,1,.072-.158A1.967,1.967,0,0,1,233.251,208.95Zm7.558,7.949h.006a2.743,2.743,0,0,0,1.529-1.217,1.952,1.952,0,0,0,.361-1.694c-.078-.2-.555-.956-3.42-2.214a31.58,31.58,0,0,0-4.468-1.584,7.115,7.115,0,0,0-1.566-.24h0a1.016,1.016,0,0,0-.9.339,20.757,20.757,0,0,0-.389,2.044c-.265,1.992.1,2.335.112,2.348a16.374,16.374,0,0,0,4.29,1.366A35.616,35.616,0,0,0,240.81,216.9Z" transform="translate(7.515 6.803)"/>
      <path id="Path_9349" data-name="Path 9349" class="cls-4" d="M229.979,217.073s-1.077,4.168-.145,4.985,8.123,2.355,9.079,2.342,2.967-1.993,2.349-3.591-6.462-3.679-8.237-4.1-2.569-.324-3.046.369" transform="translate(7.453 7.03)"/>
      <path id="Path_9350" data-name="Path 9350" class="cls-5" d="M231.342,215.95h0a7.919,7.919,0,0,1,1.8.268,32.716,32.716,0,0,1,4.637,1.641,18.054,18.054,0,0,1,2.456,1.274,3.572,3.572,0,0,1,1.494,1.5,2.83,2.83,0,0,1-.464,2.614,3.541,3.541,0,0,1-2.344,1.658h-.02a35.316,35.316,0,0,1-4.678-.88c-2.652-.634-4.239-1.167-4.717-1.586-.535-.469-.676-1.5-.443-3.241a21.313,21.313,0,0,1,.433-2.245.5.5,0,0,1,.072-.158A1.967,1.967,0,0,1,231.342,215.95ZM238.9,223.9h.006a2.743,2.743,0,0,0,1.529-1.217,1.952,1.952,0,0,0,.361-1.694c-.078-.2-.555-.956-3.42-2.214a31.582,31.582,0,0,0-4.468-1.584,7.116,7.116,0,0,0-1.566-.24h0a1.016,1.016,0,0,0-.9.339,20.761,20.761,0,0,0-.389,2.044c-.265,1.992.1,2.335.112,2.348a16.375,16.375,0,0,0,4.29,1.366A35.617,35.617,0,0,0,238.9,223.9Z" transform="translate(7.453 7.03)"/>
      <path id="Path_9351" data-name="Path 9351" class="cls-4" d="M230.871,223.819s-1.077,4.168-.145,4.985,8.121,2.355,9.079,2.342,2.967-1.993,2.349-3.591-6.462-3.679-8.237-4.1-2.569-.324-3.046.369" transform="translate(7.482 7.249)"/>
      <path id="Path_9352" data-name="Path 9352" class="cls-5" d="M232.233,222.7h0a7.92,7.92,0,0,1,1.8.268,32.716,32.716,0,0,1,4.637,1.641,18.052,18.052,0,0,1,2.456,1.274,3.572,3.572,0,0,1,1.494,1.5,2.829,2.829,0,0,1-.464,2.614,3.541,3.541,0,0,1-2.344,1.658h-.02a35.3,35.3,0,0,1-4.679-.88c-2.652-.634-4.239-1.167-4.717-1.586-.535-.469-.676-1.5-.444-3.241a21.309,21.309,0,0,1,.433-2.245.5.5,0,0,1,.072-.158A1.967,1.967,0,0,1,232.233,222.7Zm7.558,7.949h.006a2.743,2.743,0,0,0,1.529-1.217,1.952,1.952,0,0,0,.361-1.694c-.078-.2-.555-.956-3.42-2.214a31.579,31.579,0,0,0-4.468-1.584,7.115,7.115,0,0,0-1.566-.24h0a1.016,1.016,0,0,0-.9.339,20.757,20.757,0,0,0-.389,2.044c-.265,1.992.1,2.335.112,2.348a16.371,16.371,0,0,0,4.29,1.366A35.6,35.6,0,0,0,239.792,230.645Z" transform="translate(7.482 7.249)"/>
    </g>
  </g>
</svg>
